<?xml version="1.0" standalone="no"?>
<!DOCTYPE svg PUBLIC "-//W3C//DTD SVG 20010904//EN"
 "http://www.w3.org/TR/2001/REC-SVG-20010904/DTD/svg10.dtd">
<svg version="1.0" xmlns="http://www.w3.org/2000/svg"
 width="331.000000pt" height="331.000000pt" viewBox="0 0 331.000000 331.000000"
 preserveAspectRatio="xMidYMid meet">
<metadata>
Created by potrace 1.14, written by Peter Selinger 2001-2017
</metadata>
<g transform="translate(0.000000,331.000000) scale(0.100000,-0.100000)"
fill="#000000" stroke="none">
<path d="M1548 3185 c2 -14 9 -25 14 -25 6 0 5 -6 -2 -15 -20 -24 -8 -47 28
-50 29 -2 32 0 32 27 0 25 -3 28 -21 23 -21 -7 -21 -7 -2 12 27 27 48 33 64
20 7 -7 5 -2 -5 11 -15 17 -30 22 -66 22 -45 0 -47 -1 -42 -25z"/>
<path d="M1926 3195 c-16 -12 -17 -18 -8 -27 14 -14 16 -32 3 -24 -14 9 -20
-16 -9 -36 11 -22 41 -23 58 -3 10 12 10 19 -2 33 -22 26 -11 52 23 52 16 0
29 -5 29 -11 0 -6 7 -8 16 -5 9 3 21 3 27 -1 7 -4 2 -9 -13 -13 -29 -7 -37
-32 -17 -51 12 -11 12 -16 0 -27 -20 -21 -16 -42 13 -52 36 -14 44 -13 44 9 0
23 -16 37 -23 19 -2 -7 -8 -10 -12 -6 -4 4 2 25 14 48 39 75 25 96 -71 105
-37 3 -59 0 -72 -10z m134 -59 c0 -3 -4 -8 -10 -11 -5 -3 -10 -1 -10 4 0 6 5
11 10 11 6 0 10 -2 10 -4z"/>
<path d="M1235 3177 c-35 -14 -47 -59 -19 -75 11 -6 13 -11 5 -16 -16 -11 -14
-66 3 -66 43 0 59 27 31 50 -14 12 -13 16 6 36 22 23 22 24 4 44 -18 20 -18
20 9 20 16 0 25 4 21 10 -8 12 -22 12 -60 -3z m15 -47 c0 -5 -4 -10 -10 -10
-5 0 -10 5 -10 10 0 6 5 10 10 10 6 0 10 -4 10 -10z m-10 -74 c0 -3 -4 -8 -10
-11 -5 -3 -10 -1 -10 4 0 6 5 11 10 11 6 0 10 -2 10 -4z"/>
<path d="M1332 3171 c1 -3 -2 -14 -6 -23 -14 -32 -3 -53 30 -56 22 -2 33 2 38
14 8 20 -10 44 -33 44 -12 0 -13 2 -3 9 11 6 9 9 -7 14 -11 3 -20 2 -19 -2z"/>
<path d="M1502 3125 c-1 -14 3 -25 8 -25 6 0 10 11 10 25 0 14 -4 25 -8 25 -4
0 -9 -11 -10 -25z"/>
<path d="M1706 3122 c-3 -6 -1 -14 5 -17 15 -10 25 3 12 16 -7 7 -13 7 -17 1z"/>
<path d="M2376 3083 c-4 -9 -1 -20 6 -25 10 -6 10 -8 0 -8 -18 0 -13 -59 6
-82 23 -27 7 -52 -28 -44 -17 3 -30 1 -30 -4 0 -6 20 -10 45 -10 l45 0 0 40
c0 29 -4 40 -15 40 -25 0 -17 29 17 59 18 16 28 33 24 39 -11 18 -63 15 -70
-5z"/>
<path d="M1452 3078 c-15 -15 -16 -58 -2 -58 6 0 10 -5 10 -11 0 -5 -4 -8 -9
-5 -4 3 -8 -7 -9 -22 0 -15 -4 -42 -7 -59 -5 -24 -4 -33 6 -33 8 0 4 -7 -8
-15 -13 -9 -20 -22 -17 -30 3 -8 -1 -22 -10 -30 -15 -15 -16 -15 -16 4 0 12 6
21 13 21 8 0 7 4 -3 10 -12 8 -12 10 -1 10 10 0 11 3 2 14 -8 9 -8 15 -1 18 5
1 12 14 15 28 4 24 4 24 -10 6 -15 -19 -15 -19 -15 2 0 14 6 22 17 22 12 0 7
8 -17 29 -19 16 -38 27 -42 24 -4 -2 -5 3 -2 11 3 9 13 16 21 16 27 0 9 33
-21 36 -28 3 -28 2 -24 -41 4 -27 0 -55 -8 -71 -8 -14 -14 -34 -14 -44 0 -29
-11 -50 -27 -50 -10 0 -12 6 -8 20 3 11 2 20 -3 20 -17 0 -22 31 -8 45 8 8 11
25 8 40 -4 24 -6 25 -28 10 -14 -9 -25 -11 -29 -5 -7 12 -25 4 -25 -11 0 -5 8
-13 18 -16 24 -9 32 -23 32 -62 0 -21 -7 -39 -17 -47 -15 -11 -15 -15 -4 -23
10 -7 11 -13 1 -31 -6 -12 -10 -40 -8 -61 4 -45 0 -48 -30 -16 -15 16 -22 35
-21 63 0 68 -12 126 -26 120 -7 -2 -18 1 -24 7 -11 11 -13 8 -15 -27 -1 -10
-8 -23 -18 -29 -13 -9 -31 -1 -86 36 -39 26 -76 47 -84 47 -7 0 -22 7 -32 15
-32 24 -100 19 -134 -10 -17 -14 -34 -25 -40 -25 -5 0 -13 -7 -16 -16 -9 -22
-8 -23 13 -17 17 4 22 -4 36 -52 10 -31 25 -65 35 -75 20 -20 17 -57 -7 -77
-8 -6 -15 -25 -15 -42 -1 -17 -4 -31 -8 -31 -4 0 -4 -19 1 -42 11 -60 11 -62
-8 -47 -9 8 -18 12 -20 10 -7 -6 -63 21 -63 30 0 5 -8 9 -17 9 -11 0 -14 -3
-7 -8 5 -4 10 -23 10 -42 -1 -29 3 -36 22 -38 13 -2 32 4 43 14 16 14 21 15
35 3 25 -21 33 -51 18 -67 -18 -18 -18 -37 1 -52 18 -15 20 -40 3 -40 -21 1
-90 58 -79 65 6 3 11 19 11 36 0 25 -4 29 -29 29 -22 0 -30 -5 -33 -20 -3 -19
-5 -19 -36 10 -25 23 -32 35 -27 51 6 17 3 20 -17 18 -47 -4 -90 24 -101 69
-6 25 0 26 37 12 19 -7 26 -17 26 -35 0 -20 5 -25 25 -25 14 0 29 8 35 20 9
17 7 22 -15 30 -15 6 -30 8 -34 6 -4 -3 -15 4 -24 15 -9 10 -24 19 -32 19 -10
0 -13 5 -9 13 4 6 -7 -1 -24 -17 -17 -15 -30 -37 -29 -46 1 -10 4 -17 7 -15 3
2 21 -12 39 -31 19 -19 37 -34 42 -34 4 0 10 -8 13 -18 4 -11 18 -25 31 -32
17 -9 22 -17 15 -24 -18 -18 -11 -28 16 -22 36 9 64 -17 64 -61 0 -33 19 -48
21 -15 0 10 3 12 6 5 2 -7 15 -13 29 -13 17 0 31 -12 50 -41 15 -24 22 -44 16
-48 -5 -3 -10 -37 -11 -76 -1 -38 -3 -71 -6 -73 -2 -2 -13 2 -25 8 -15 8 -19
17 -15 31 5 14 2 19 -10 19 -12 0 -15 -5 -11 -16 6 -14 -2 -16 -61 -10 -38 4
-130 9 -205 12 -122 5 -146 4 -207 -15 -85 -26 -123 -56 -141 -113 -25 -78
-16 -131 29 -172 12 -11 21 -30 21 -43 0 -20 5 -23 41 -23 36 0 40 2 29 15 -7
8 -21 15 -31 15 -37 0 -29 20 11 26 45 7 37 24 -12 24 -19 0 -28 5 -28 16 0 8
-4 13 -9 10 -5 -4 -7 3 -4 14 7 25 19 34 28 20 4 -6 30 3 68 24 34 19 67 32
73 28 16 -10 24 -41 14 -47 -13 -8 -11 -127 2 -142 14 -18 25 -16 49 8 17 17
18 23 7 36 -10 13 -10 17 0 20 17 7 15 70 -3 77 -8 3 -15 18 -15 33 0 21 3 24
9 14 7 -10 11 -1 16 31 6 38 10 45 26 41 10 -3 19 -12 19 -20 0 -10 6 -13 15
-9 9 3 18 -1 21 -9 4 -8 10 -15 15 -15 11 0 12 37 2 43 -5 2 -1 2 7 -1 8 -2
21 -5 28 -5 6 0 12 -4 12 -9 0 -4 11 -8 25 -8 30 0 33 -16 5 -23 -14 -3 -20
-14 -20 -31 0 -20 5 -26 23 -26 35 0 46 17 36 52 -8 30 -8 30 23 24 17 -3 34
-8 36 -11 2 -2 4 -50 4 -106 0 -91 2 -102 19 -106 24 -7 24 -11 -3 -33 -20
-16 -21 -20 -8 -35 15 -18 18 -18 -129 1 -38 5 -52 4 -47 -4 6 -10 14 -12 63
-13 13 0 25 -5 28 -10 4 -6 -16 -7 -52 -4 -52 4 -55 4 -25 -7 20 -7 32 -18 32
-29 0 -10 5 -21 10 -24 6 -3 10 -2 10 2 0 5 14 14 31 20 17 7 28 17 24 22 -3
6 1 11 10 11 9 0 13 -4 10 -10 -3 -5 0 -10 7 -10 7 0 18 -10 23 -22 12 -27 35
-35 35 -13 0 14 3 15 14 6 11 -10 16 -9 24 5 11 20 34 10 31 -14 -1 -10 0 -19
1 -22 7 -18 7 -109 0 -121 -13 -20 -24 0 -29 54 -1 4 -5 7 -11 7 -5 0 -10 -16
-10 -35 0 -38 -11 -42 -79 -29 -24 5 -31 12 -31 29 0 19 -5 22 -32 20 -20 -1
-33 -8 -33 -16 0 -9 9 -13 22 -11 17 2 23 -2 23 -16 0 -15 -21 -31 -73 -60
-88 -49 -99 -61 -95 -104 3 -30 6 -33 38 -33 33 0 35 2 38 38 3 36 2 37 -30
38 -31 0 -31 1 -10 10 25 9 105 6 134 -6 11 -4 24 -1 33 8 8 9 27 14 43 12 39
-5 39 -5 15 -15 -24 -10 -31 -44 -13 -55 8 -5 7 -11 0 -20 -7 -8 -11 -27 -10
-42 4 -51 0 -62 -21 -68 -14 -5 -26 0 -39 15 -16 18 -22 20 -40 10 -16 -9 -21
-18 -17 -36 4 -23 -18 -47 -40 -43 -20 3 -27 -2 -13 -11 11 -7 6 -8 -17 -4
-25 5 -34 3 -39 -10 -3 -9 -11 -16 -17 -16 -6 0 -18 -7 -27 -15 -9 -8 -34 -17
-55 -21 -22 -3 -41 -7 -43 -9 -2 -2 7 -15 19 -29 25 -28 69 -35 69 -11 0 10
-10 15 -32 15 -45 0 -31 7 25 12 44 5 49 3 58 -18 4 -13 14 -24 21 -25 7 0 4
-4 -7 -8 -11 -5 -37 -7 -57 -6 -21 2 -38 -1 -38 -6 0 -8 5 -10 25 -9 3 0 18
-6 33 -13 15 -8 61 -17 102 -20 42 -2 76 -10 78 -16 2 -6 8 -9 12 -6 5 3 2 -7
-5 -23 -8 -15 -18 -60 -21 -100 -6 -62 -4 -75 11 -92 10 -11 26 -20 37 -20 12
0 18 -7 18 -24 0 -55 147 -62 258 -11 34 15 66 25 69 21 4 -4 -1 -47 -11 -96
-10 -49 -20 -134 -22 -189 -4 -88 -3 -101 13 -110 10 -6 14 -11 10 -11 -17 0
16 -42 53 -65 46 -29 82 -31 136 -9 50 21 136 93 127 106 -3 6 -1 8 5 4 6 -4
26 17 47 49 20 30 40 57 44 59 4 3 26 0 50 -6 45 -11 61 -34 61 -85 0 -30 60
-127 99 -160 20 -18 39 -22 86 -23 56 0 63 3 105 41 25 22 38 37 30 34 -8 -4
-6 1 5 10 11 9 19 23 17 31 -2 8 2 14 8 14 6 0 8 -5 4 -11 -4 -7 0 -9 14 -5
15 5 25 -1 42 -28 25 -41 75 -80 90 -71 6 4 9 1 8 -7 -2 -9 12 -14 48 -16 48
-3 53 -1 83 33 17 20 37 57 44 82 6 25 18 48 25 50 8 4 2 17 -20 43 -70 82
-135 182 -145 220 -3 14 -10 31 -15 37 -6 7 -7 21 -2 30 13 30 12 86 -2 131
-17 52 -17 52 0 52 9 0 14 11 14 28 -1 53 -8 72 -28 72 -24 0 -31 -12 -19 -30
6 -10 9 -11 9 -2 0 6 7 12 16 12 11 0 14 -5 10 -16 -3 -9 -6 -18 -6 -20 0 -10
-39 -3 -43 9 -4 7 -6 6 -6 -5 -1 -9 4 -18 10 -20 9 -3 9 -10 0 -27 -7 -13 -10
-32 -8 -43 4 -16 3 -17 -9 -7 -12 10 -14 -4 -15 -92 -1 -89 -14 -198 -18 -146
-2 33 -20 17 -19 -18 1 -31 3 -32 14 -17 7 9 14 13 14 9 0 -18 -33 -143 -41
-151 -13 -15 -11 6 6 54 11 31 12 41 2 37 -6 -2 -14 -12 -15 -21 -2 -10 -12
-26 -23 -37 -10 -10 -28 -39 -40 -65 -16 -32 -25 -42 -33 -34 -7 7 -7 16 1 29
10 16 9 20 -3 25 -10 4 -14 16 -12 33 3 25 0 28 -22 25 -32 -5 -38 -11 -20
-22 12 -7 12 -12 2 -22 -9 -9 -12 -9 -12 0 0 7 -4 12 -10 12 -13 0 -13 -27 0
-33 6 -3 5 -4 -2 -3 -7 1 -14 15 -16 29 -2 15 -7 25 -12 22 -13 -8 -24 15 -12
27 6 6 6 20 1 36 -5 15 -12 54 -16 87 -6 52 -8 55 -11 23 -2 -21 -7 -38 -13
-38 -5 0 -9 4 -9 9 0 5 -10 7 -21 4 -16 -4 -20 -2 -17 8 3 8 12 14 20 13 8 -1
15 4 15 11 0 7 -6 11 -14 8 -7 -3 -13 1 -13 8 0 8 -5 6 -13 -5 -9 -13 -11 -32
-7 -63 7 -41 1 -60 -14 -46 -11 11 -7 88 6 101 8 8 8 15 1 24 -6 7 -9 22 -7
33 8 41 8 282 0 335 -5 30 -8 70 -8 88 0 20 -5 32 -13 32 -18 0 -13 41 8 74 9
14 17 31 17 39 0 11 75 176 85 186 6 6 35 -26 35 -39 0 -7 14 -11 33 -10 17 1
37 1 42 0 6 -1 14 -2 18 -1 4 1 11 -7 15 -16 5 -14 8 -12 12 12 6 27 10 20 35
-58 15 -48 29 -86 31 -85 1 2 0 47 -4 101 -4 53 -6 97 -4 97 1 0 7 -11 12 -25
5 -14 15 -22 22 -20 8 3 24 -12 37 -34 21 -33 25 -53 25 -122 1 -78 2 -84 26
-96 24 -12 25 -13 3 -13 -13 0 -23 -6 -23 -14 0 -8 -3 -21 -6 -29 -3 -9 2 -16
13 -19 33 -8 50 3 61 37 8 29 7 37 -5 44 -13 7 -13 9 1 14 22 9 35 -19 29 -63
-3 -20 2 -56 10 -80 12 -37 13 -46 1 -58 -8 -7 -14 -17 -14 -21 0 -16 29 -32
52 -29 30 4 38 46 12 65 -10 7 -13 13 -7 13 6 0 18 3 26 6 8 3 17 -2 21 -13 3
-10 17 -38 32 -62 20 -34 23 -45 13 -52 -10 -6 -9 -10 6 -15 40 -15 46 -44 10
-44 -25 0 -31 -13 -27 -65 2 -16 0 -17 -8 -5 -19 29 -11 -34 10 -75 22 -43 26
-80 10 -90 -20 -12 -9 -32 23 -41 19 -6 37 -20 45 -37 16 -32 32 -36 24 -5 -4
16 -2 19 8 13 10 -6 12 -4 7 9 -4 10 -7 20 -7 22 0 3 -4 3 -8 0 -5 -3 -18 12
-29 34 -16 29 -18 40 -8 43 7 3 13 24 14 46 1 23 2 47 2 54 0 6 -2 30 -6 52
l-6 40 33 -52 c63 -98 57 -91 57 -70 2 37 26 9 43 -49 17 -54 23 -129 19 -241
-1 -33 -4 -41 -16 -37 -13 5 -45 -16 -45 -30 0 -10 24 -7 53 7 28 13 30 18 27
106 -1 51 -1 53 15 37 14 -13 15 -20 5 -31 -14 -16 -7 -45 10 -45 6 0 9 4 6 9
-4 5 -1 11 6 13 6 2 13 17 14 34 2 16 8 58 13 94 6 36 11 87 11 113 0 60 14
66 81 37 28 -12 53 -19 56 -16 3 3 -6 8 -20 11 -18 5 -24 11 -20 23 5 11 2 14
-10 9 -18 -7 -46 3 -88 31 -95 63 -154 108 -207 161 -56 55 -61 63 -50 81 11
17 10 22 -2 30 -8 6 -23 8 -32 6 -10 -2 -23 6 -33 20 -18 27 -19 34 -5 34 6 0
10 -7 10 -15 0 -17 16 -20 25 -5 3 5 12 7 19 4 8 -3 16 4 19 17 8 30 1 36 -23
22 -14 -10 -19 -9 -23 1 -4 9 5 16 25 20 21 4 28 10 25 21 -4 8 -2 17 3 20 6
4 10 2 10 -3 0 -5 7 -9 15 -9 8 0 11 5 8 10 -3 5 0 7 8 5 8 -3 13 -13 12 -23
-1 -20 26 -55 44 -55 7 0 13 -6 13 -14 0 -7 44 -55 98 -106 97 -92 98 -94 79
-113 -21 -21 -22 -20 -86 40 -13 13 -27 21 -31 18 -4 -3 -13 2 -20 11 -11 12
-15 12 -21 2 -10 -15 17 -48 39 -48 9 0 13 -3 9 -6 -6 -6 61 -62 116 -97 15
-10 27 -24 27 -32 0 -11 7 -14 23 -10 12 3 29 -1 38 -8 16 -12 33 -46 31 -59
-3 -12 26 -10 33 2 4 6 12 7 18 4 7 -4 9 -4 5 1 -4 4 -3 16 2 25 7 13 5 21 -5
30 -7 6 -11 18 -8 26 8 22 83 -23 80 -49 -1 -11 4 -22 11 -24 7 -3 12 3 12 14
0 11 3 14 8 7 16 -24 40 -22 73 6 19 15 31 31 27 35 -3 4 -16 -3 -28 -15 -32
-32 -50 -19 -50 34 0 46 -19 69 -47 59 -7 -3 -13 0 -13 6 0 6 11 11 24 11 20
0 36 16 36 37 0 3 -11 3 -25 1 -14 -3 -28 -1 -31 4 -14 21 -25 -8 -20 -53 3
-27 2 -49 -2 -49 -14 0 -62 58 -51 62 9 3 9 12 2 33 -6 19 -6 42 -1 64 6 22 6
36 0 40 -7 4 -7 24 -1 59 9 49 8 54 -13 72 -21 17 -22 20 -6 32 11 9 18 30 20
65 2 29 7 53 11 53 5 0 5 4 2 10 -3 5 -7 28 -8 50 -2 36 0 40 18 38 18 -3 20
-11 23 -110 2 -100 4 -108 22 -108 15 0 20 -7 20 -29 0 -33 7 -40 44 -43 19
-2 26 -8 28 -25 0 -13 1 -29 2 -35 1 -7 7 -17 14 -21 11 -7 10 -11 -3 -21 -13
-9 -14 -17 -6 -38 5 -15 7 -43 4 -64 -5 -31 -4 -36 10 -31 9 3 18 1 21 -6 2
-7 5 4 5 24 1 40 13 50 69 55 52 5 110 43 137 92 20 36 25 57 24 111 -1 36 -4
55 -6 41 -3 -14 -8 -29 -13 -33 -11 -12 -9 46 2 60 7 9 7 13 -1 13 -6 0 -14 0
-18 0 -4 0 -7 -22 -8 -49 0 -29 4 -47 10 -44 6 2 2 -2 -7 -9 -11 -10 -14 -19
-7 -29 17 -27 11 -59 -13 -59 -20 0 -20 1 -5 18 10 10 17 23 17 28 0 5 -5 2
-10 -6 -8 -13 -10 -12 -10 3 0 10 -3 16 -8 13 -11 -6 -2 77 10 91 6 8 7 18 2
25 -8 12 -10 35 -4 48 13 27 1 54 -48 106 -30 33 -51 53 -47 45 5 -9 3 -12 -6
-9 -8 3 -14 10 -14 16 0 7 -17 23 -38 38 -21 14 -36 31 -34 37 2 7 28 15 58
19 52 6 140 37 109 38 -26 0 31 33 63 36 22 1 26 -1 16 -8 -11 -8 -10 -9 4 -4
10 3 21 6 25 6 3 0 -3 7 -14 16 -18 15 -18 15 11 11 24 -4 39 2 73 30 72 59
73 63 60 191 -11 109 -19 130 -48 112 -15 -9 -5 -30 16 -30 8 0 14 -8 14 -17
0 -11 -3 -14 -8 -7 -4 6 -17 14 -29 18 -14 4 -23 17 -26 34 -3 25 -4 25 -13 7
-5 -11 -17 -21 -26 -21 -10 -1 -15 2 -12 7 3 5 -2 12 -11 15 -9 4 -14 12 -11
19 3 8 -2 16 -10 19 -14 5 -20 27 -6 25 18 -3 32 2 32 11 0 12 -57 14 -63 2
-8 -12 4 -62 15 -62 5 0 16 -7 24 -15 9 -8 13 -15 9 -15 -3 0 0 -6 7 -14 7 -8
16 -12 19 -10 3 2 23 -9 45 -24 l39 -27 -40 -5 c-37 -5 -38 -6 -15 -14 14 -5
33 -17 43 -27 10 -11 23 -16 29 -13 6 4 8 3 5 -4 -4 -5 -16 -8 -27 -5 -14 4
-20 0 -20 -11 0 -8 -11 -18 -25 -22 -15 -4 -22 -11 -18 -18 3 -6 3 -8 -2 -4
-6 6 -85 -27 -85 -35 0 -1 11 -4 25 -5 14 -1 25 3 25 8 0 6 9 10 19 10 11 0
23 5 26 10 7 12 52 13 59 2 7 -12 -74 -62 -104 -63 -14 0 -19 -3 -11 -6 9 -4
0 -12 -25 -24 -45 -21 -54 -23 -54 -10 0 5 14 13 32 16 31 7 31 8 9 19 -12 7
-18 15 -15 19 4 4 2 7 -5 7 -7 0 -9 5 -5 12 8 12 7 97 -2 143 -3 19 -1 24 7
19 8 -5 9 -3 4 6 -4 7 -8 28 -7 46 1 18 -2 35 -7 38 -8 5 -5 121 5 146 4 11 9
8 20 -12 15 -29 33 -33 69 -18 18 8 18 9 -6 9 -27 1 -59 28 -59 50 0 7 -4 10
-8 7 -4 -2 -8 10 -9 27 0 18 -1 59 -3 92 -1 52 2 85 11 105 1 3 5 -13 8 -34 4
-28 12 -41 29 -47 52 -19 48 98 -5 147 -20 19 -28 21 -35 12 -6 -10 -10 -8
-14 8 -4 16 -11 19 -36 16 -19 -3 -33 1 -39 9 -7 11 -9 9 -10 -6 -1 -11 -1
-23 0 -27 0 -3 1 -89 2 -189 1 -168 0 -184 -17 -196 -18 -13 -19 -11 -22 28
-2 23 2 47 7 52 14 14 14 47 0 47 -6 0 -9 7 -5 15 3 8 1 15 -4 15 -5 0 -7 7
-3 16 3 9 0 20 -8 24 -11 7 -10 15 4 45 13 28 15 41 6 56 -7 13 -7 24 -1 32
13 16 23 77 12 77 -4 0 -6 10 -4 23 2 12 2 16 -2 10 -6 -14 -54 -18 -54 -5 0
5 -22 9 -50 11 -27 1 -50 -2 -50 -8 0 -5 -9 -7 -20 -4 -22 6 -28 -15 -8 -35 8
-8 8 -15 0 -24 -6 -8 -10 -53 -9 -107 0 -78 4 -95 19 -104 22 -14 24 -29 3
-20 -9 3 -21 -1 -28 -10 -7 -8 -25 -18 -42 -21 -28 -7 -29 -7 -10 8 l20 15
-20 15 c-25 20 -35 20 -36 1 -1 -8 -2 -20 -3 -26 0 -7 -15 -13 -32 -15 -25 -3
-33 1 -37 17 -3 12 -10 18 -16 15 -6 -4 -4 6 4 21 19 35 19 43 0 43 -22 0 -18
17 5 23 13 3 18 10 14 21 -4 9 -1 16 6 16 10 0 9 5 -2 18 -17 19 -20 51 -5 70
14 18 -9 15 -44 -5 -36 -21 -38 -37 -3 -29 23 6 24 5 14 -14 -6 -11 -17 -20
-24 -20 -8 0 -16 -8 -18 -18 -5 -19 -173 -150 -244 -189 -39 -22 -59 -26 -111
-21 -25 2 -30 13 -11 24 6 4 14 2 16 -4 5 -16 33 -15 55 2 14 11 16 18 7 41
-8 21 -8 30 1 36 7 4 10 19 7 33 -3 15 -1 29 5 33 6 3 7 1 3 -5 -10 -17 19
-15 33 2 9 11 13 76 4 76 -1 0 -14 -12 -28 -27 l-25 -28 -6 23 c-8 27 -20 28
-34 3 -14 -27 -13 -31 6 -24 12 4 15 2 12 -8 -3 -8 -16 -13 -31 -12 -22 1 -26
-3 -32 -38 -7 -38 -29 -69 -24 -33 1 11 -1 39 -5 63 -7 36 -5 48 12 71 15 20
18 30 9 39 -8 8 -8 11 1 11 7 0 12 7 12 16 0 8 -5 12 -11 8 -8 -5 -8 -1 0 14
6 11 11 30 11 41 0 12 5 21 11 21 6 0 9 -9 6 -20 -6 -22 18 -49 25 -28 4 10 8
10 22 -1 12 -10 14 -17 6 -25 -14 -14 -12 -26 5 -26 8 0 15 8 15 18 0 10 9 28
21 41 12 12 18 25 15 28 -3 4 -14 -3 -24 -14 -14 -17 -19 -18 -30 -7 -8 9 -9
14 -2 14 6 0 10 8 8 19 -3 18 60 121 75 121 16 0 65 65 54 72 -8 5 -7 14 2 35
10 23 10 26 0 16 -17 -17 -39 -16 -39 1 0 7 13 29 30 47 16 19 30 36 29 39 -1
11 -59 51 -59 41 0 -7 -11 -9 -24 -7 -14 2 -27 -1 -29 -7 -3 -9 -8 -9 -17 -1
-9 9 -9 17 1 35 7 13 14 43 15 67 1 33 -2 42 -15 42 -10 0 -16 9 -17 28 -1 15
-4 41 -7 59 -5 28 -1 36 34 66 30 27 36 36 24 41 -9 3 -14 2 -11 -3 3 -5 -19
-21 -49 -36 -44 -21 -55 -31 -55 -50 0 -17 6 -25 23 -27 20 -3 22 -8 22 -71 0
-51 -4 -73 -17 -87 -10 -11 -23 -39 -30 -64 -6 -25 -16 -42 -20 -40 -5 3 -6
-7 -2 -22 6 -24 5 -27 -15 -21 -18 4 -20 3 -11 -8 18 -22 1 -63 -31 -74 -26
-9 -41 -23 -21 -20 28 5 40 -3 35 -21 -6 -24 -33 -27 -33 -3 0 37 -10 2 -14
-48 -8 -102 -43 -193 -72 -182 -12 4 -14 0 -9 -19 4 -16 1 -29 -9 -37 -9 -8
-16 -20 -16 -28 0 -26 -52 -124 -63 -120 -7 2 -16 13 -22 25 -13 30 -23 28
-31 -5 -3 -16 -7 -32 -8 -37 -1 -5 -11 5 -23 23 l-20 32 -13 -30 c-14 -36 -25
-39 -40 -12 -14 27 -13 29 10 33 25 4 22 24 -2 21 -10 -2 -18 2 -18 8 0 5 -5
7 -10 4 -6 -3 -9 -26 -8 -49 3 -82 -23 -89 -42 -11 -17 72 -29 79 -24 15 2
-31 0 -48 -6 -45 -6 3 -10 -3 -10 -14 0 -12 -5 -21 -11 -21 -6 0 -8 -9 -4 -22
5 -21 5 -21 -5 -5 -7 10 -9 21 -6 24 3 3 -4 18 -15 34 -25 35 -51 109 -45 126
7 18 -4 44 -15 37 -5 -3 -9 -1 -9 5 0 5 -3 16 -6 24 -4 11 2 16 17 19 28 4 35
22 16 40 -13 11 -13 17 -1 41 18 34 28 35 22 2 -3 -14 -1 -25 4 -25 6 0 7 54
3 138 -4 75 -9 184 -11 242 -3 58 -6 125 -9 150 -2 25 -4 56 -4 68 -1 16 -8
26 -22 29 -19 5 -18 7 11 19 18 8 33 14 35 14 1 0 6 -87 10 -192 5 -106 9
-213 10 -238 2 -45 9 -70 26 -102 13 -26 11 -32 -6 -18 -12 10 -15 10 -15 -2
0 -8 3 -18 7 -22 4 -4 9 -19 11 -34 5 -38 19 -50 60 -54 35 -3 37 -5 37 -37 0
-41 25 -62 49 -42 22 18 20 48 -3 63 -19 11 -18 13 11 30 24 15 28 21 18 33
-7 8 -21 15 -32 15 -18 0 -18 1 2 22 24 26 25 37 5 44 -8 4 -15 12 -15 20 0 8
-4 14 -10 14 -5 0 -10 16 -10 35 0 23 5 35 14 35 21 0 38 27 31 50 -8 24 -37
26 -56 4 -10 -12 -10 -20 -1 -34 7 -12 8 -21 2 -25 -6 -3 -10 -23 -10 -43 0
-20 -4 -41 -8 -47 -15 -21 -33 -14 -38 15 -4 16 -13 30 -20 30 -8 0 -14 5 -14
10 0 7 6 7 19 0 12 -6 22 -6 25 -1 4 5 1 11 -5 13 -13 4 -29 288 -17 303 12
14 10 25 -7 25 -17 0 -20 16 -5 25 15 9 12 34 -5 51 -19 19 -19 34 -1 34 16 0
25 19 19 38 -6 17 -23 15 -23 -3 0 -8 -4 -15 -10 -15 -10 0 -15 27 -12 63 3
29 -15 10 -21 -23 -12 -55 -46 -28 -47 36 0 29 -32 58 -48 42z m-702 -153 c7
-9 8 -15 2 -15 -5 0 -12 7 -16 15 -3 8 -4 15 -2 15 2 0 9 -7 16 -15z m76 -93
c-3 -23 -1 -35 9 -38 8 -3 11 -12 8 -20 -9 -24 -35 5 -30 34 3 14 -1 26 -9 29
-8 3 -11 9 -8 14 3 6 1 16 -6 24 -10 12 -7 12 15 2 23 -10 26 -17 21 -45z
m638 26 c-5 -8 -1 -7 10 2 16 13 18 12 14 -10 -2 -17 -10 -26 -25 -28 -25 -4
-31 16 -11 36 16 16 21 15 12 0z m-426 -63 c38 -34 51 -53 50 -71 -2 -22 -18
-36 -18 -15 0 5 -27 37 -60 72 -90 96 -73 105 28 14z m435 -10 c-1 -5 -9 -12
-18 -13 -22 -5 -48 6 -41 16 7 12 61 9 59 -3z m-435 -139 c17 -23 32 -50 32
-59 0 -10 4 -17 9 -17 11 0 22 -38 12 -44 -8 -6 -7 -53 2 -63 4 -3 25 -6 47
-5 50 2 60 -14 63 -107 1 -49 -1 -67 -10 -64 -6 3 -9 11 -6 19 3 8 -1 14 -11
14 -9 0 -16 4 -16 9 0 7 -36 57 -70 98 -5 7 -10 15 -10 19 0 3 -9 17 -20 31
-11 14 -20 21 -20 14 0 -21 -15 -10 -43 31 -19 26 -23 39 -13 35 10 -4 13 -1
10 8 -3 8 -12 11 -19 9 -16 -7 -39 32 -29 48 5 7 3 8 -6 3 -13 -8 -13 -7 7 43
3 7 -2 12 -12 12 -9 0 -14 4 -11 9 3 4 2 21 -3 37 -21 76 22 47 117 -80z m437
46 c-11 -11 -43 -8 -38 4 2 6 13 9 24 7 11 -3 17 -8 14 -11z m830 8 c-3 -5
-11 -10 -16 -10 -6 0 -7 5 -4 10 3 6 11 10 16 10 6 0 7 -4 4 -10z m-1165 -19
c0 -6 -5 -13 -10 -16 -8 -5 -7 -12 2 -23 12 -15 11 -16 -4 -3 -22 17 -24 51
-3 51 8 0 15 -4 15 -9z m50 -63 c8 -18 13 -39 12 -46 -2 -7 4 -15 12 -18 8 -3
12 -12 9 -20 -6 -17 -23 -19 -23 -3 0 6 -14 29 -31 50 -17 21 -26 39 -20 39 6
0 11 7 11 15 0 25 14 17 30 -17z m-341 -40 c4 -24 2 -58 -4 -75 -10 -31 -12
-32 -33 -17 -21 15 -29 44 -15 58 4 3 8 17 10 29 2 12 5 33 8 46 9 34 26 13
34 -41z m615 38 c-10 -8 -21 -12 -24 -10 -5 6 21 24 34 24 6 0 1 -6 -10 -14z
m11 -36 c3 -5 1 -10 -4 -10 -6 0 -11 5 -11 10 0 6 2 10 4 10 3 0 8 -4 11 -10z
m243 -18 c2 -7 -3 -12 -12 -12 -9 0 -16 7 -16 16 0 17 22 14 28 -4z m555 -11
c-6 -3 -13 -16 -17 -28 -4 -13 -15 -23 -26 -23 -10 0 -22 -9 -25 -20 -3 -11
-11 -20 -16 -20 -14 0 -11 9 11 37 11 14 17 29 14 34 -3 5 -2 8 3 7 5 -2 19 7
33 20 15 14 26 19 29 11 2 -6 -1 -14 -6 -18z m-800 -11 c18 0 22 -6 23 -33 1
-17 -1 -27 -3 -20 -5 15 -33 5 -33 -12 0 -7 7 -12 16 -11 9 0 19 -5 21 -11 3
-7 -2 -13 -11 -13 -9 0 -16 -6 -17 -12 0 -10 -2 -10 -6 0 -7 18 -23 15 -23 -6
0 -20 29 -64 30 -46 0 7 9 14 19 17 13 3 21 -1 24 -15 4 -14 1 -18 -8 -14 -8
3 -27 1 -43 -4 -28 -7 -30 -6 -36 23 -17 79 -18 98 -6 112 6 7 11 24 10 37 -3
37 0 44 11 26 5 -10 20 -18 32 -18z m-63 -15 c0 -8 -2 -15 -4 -15 -2 0 -6 7
-10 15 -3 8 -1 15 4 15 6 0 10 -7 10 -15z m-122 -35 c31 -29 56 -69 48 -78 -4
-3 -11 0 -16 8 -5 8 -12 11 -16 7 -14 -14 20 -39 48 -35 20 3 32 -1 37 -11 17
-33 53 -147 53 -168 0 -13 7 -28 14 -34 18 -15 18 -27 -1 -45 -18 -19 -55 -2
-55 25 0 10 -7 24 -15 31 -17 14 -20 40 -5 40 6 0 10 11 10 25 0 21 -5 25 -29
25 -16 0 -31 6 -34 14 -4 10 -1 13 7 10 14 -5 46 20 46 36 0 18 -22 21 -46 6
-23 -16 -25 -16 -35 11 -6 15 -15 36 -20 45 -5 10 -9 25 -9 33 0 8 -6 15 -12
16 -10 0 -10 2 0 6 14 6 16 33 2 33 -5 0 -10 5 -10 10 0 16 14 12 38 -10z
m-269 -50 c68 -57 75 -65 75 -100 1 -20 6 -25 28 -25 28 0 78 -39 78 -61 0 -7
9 -18 20 -24 23 -12 25 -8 9 19 -7 10 -9 29 -6 43 11 41 47 31 78 -20 23 -39
26 -51 21 -112 -6 -82 1 -108 23 -90 12 10 15 10 15 -1 0 -10 4 -10 15 2 18
17 10 49 -11 49 -18 0 -18 16 1 23 9 4 20 -5 30 -23 34 -66 43 -86 50 -107 6
-21 5 -22 -20 -9 -14 8 -32 22 -40 32 -8 11 -14 14 -15 7 0 -7 -11 -13 -25
-13 -30 0 -34 -26 -7 -46 15 -12 14 -13 -13 -14 -22 0 -26 -3 -17 -12 17 -17
15 -48 -3 -48 -26 0 -48 48 -46 100 1 47 1 49 -26 46 -20 -2 -27 -9 -28 -27
-3 -33 4 -42 21 -28 11 9 14 8 14 -9 0 -33 -25 -32 -63 4 -19 19 -39 34 -42
34 -4 0 -48 34 -98 77 -92 77 -116 108 -98 126 7 7 6 15 -2 25 -9 12 -9 16 0
19 10 4 10 10 2 25 -6 11 -8 22 -5 25 9 10 50 -6 78 -29 14 -13 36 -31 47 -40
29 -25 74 -28 79 -5 2 10 -2 25 -9 33 -10 13 -14 13 -30 -2 -17 -15 -22 -12
-93 51 -73 66 -93 98 -81 136 10 29 29 23 94 -31z m1111 15 c-7 -8 -8 -15 -2
-15 5 0 15 7 22 15 7 8 16 12 21 9 16 -9 10 -24 -10 -24 -25 0 -32 -21 -15
-45 20 -27 17 -34 -11 -30 -30 3 -32 5 -36 25 -4 23 24 80 38 80 3 0 0 -7 -7
-15z m-1279 -62 c0 -13 1 -39 1 -58 0 -76 -2 -77 -42 -43 -16 13 -21 22 -13
25 10 4 10 9 0 24 -10 16 -9 21 2 28 13 9 12 24 -5 65 -7 19 -7 19 24 0 20
-12 32 -27 33 -41z m816 -49 c8 -21 -16 -35 -40 -23 -14 8 -16 13 -6 25 15 19
38 18 46 -2z m-547 -4 c0 -5 -5 -10 -11 -10 -5 0 -7 5 -4 10 3 6 8 10 11 10 2
0 4 -4 4 -10z m334 -26 c3 -8 2 -12 -4 -9 -6 3 -10 10 -10 16 0 14 7 11 14 -7z
m-329 -54 c-3 -5 -11 -10 -16 -10 -6 0 -7 5 -4 10 3 6 11 10 16 10 6 0 7 -4 4
-10z m595 -11 c0 -5 -7 -9 -15 -9 -15 0 -20 12 -9 23 8 8 24 -1 24 -14z m301
-71 c0 -29 -4 -68 -10 -85 -7 -24 -6 -33 2 -33 9 0 9 -2 1 -8 -6 -4 -14 -14
-17 -22 -3 -8 -4 7 -1 33 4 36 2 51 -9 60 -19 15 -32 57 -18 57 6 0 11 9 11
21 0 11 5 30 11 41 10 18 13 19 20 5 5 -8 9 -39 10 -69z m-1173 -10 c-1 -16
-6 -32 -10 -34 -14 -9 -9 -52 7 -58 9 -3 15 -18 15 -35 0 -16 3 -32 8 -34 15
-10 52 13 52 32 0 11 5 23 10 26 6 4 7 12 3 18 -4 6 -7 24 -8 39 l-1 27 35
-21 c79 -47 231 -161 231 -172 0 -7 24 -24 53 -39 29 -14 65 -37 80 -51 26
-25 37 -43 17 -31 -5 3 -10 -1 -10 -9 0 -20 -19 -20 -70 0 -30 12 -40 22 -40
39 0 13 6 26 13 28 7 3 5 6 -5 6 -13 1 -18 -7 -18 -24 0 -27 -13 -31 -54 -15
-18 7 -24 14 -19 26 5 15 2 16 -26 11 -25 -5 -50 1 -104 24 -40 18 -74 34 -77
38 -3 3 -32 20 -65 37 -46 24 -59 36 -56 50 2 10 4 56 5 101 1 77 2 81 19 66
10 -10 16 -28 15 -45z m632 -56 c0 -13 -12 -22 -22 -16 -10 6 -1 24 13 24 5 0
9 -4 9 -8z m1013 -35 c5 -12 2 -42 -9 -95 -2 -13 -9 -20 -14 -17 -5 3 -11 1
-15 -5 -13 -22 -23 -8 -18 25 5 31 3 35 -16 35 -11 0 -21 5 -21 10 0 6 7 10
15 10 8 0 22 11 31 25 18 27 39 33 47 12z m-993 -18 c0 -5 -4 -9 -10 -9 -5 0
-10 7 -10 16 0 8 5 12 10 9 6 -3 10 -10 10 -16z m-1180 -19 c0 -5 -5 -10 -11
-10 -5 0 -7 5 -4 10 3 6 8 10 11 10 2 0 4 -4 4 -10z m-55 -10 c-3 -5 -1 -10 6
-10 8 0 9 -3 0 -13 -6 -8 -7 -17 -3 -22 4 -4 0 -6 -8 -3 -17 5 -20 39 -5 50
14 11 17 10 10 -2z m-126 -27 c20 -8 21 -11 8 -16 -9 -3 -19 -2 -22 3 -4 6
-15 10 -26 10 -11 0 -18 4 -15 9 7 10 19 9 55 -6z m1291 -67 c0 -6 -15 3 -32
20 -18 16 -35 30 -37 31 -2 2 2 10 9 18 12 15 16 12 37 -22 12 -21 23 -42 23
-47z m1120 75 c0 -11 -26 -22 -34 -14 -12 12 -5 23 14 23 11 0 20 -4 20 -9z
m-540 -11 c0 -5 -2 -10 -4 -10 -3 0 -8 5 -11 10 -3 6 -1 10 4 10 6 0 11 -4 11
-10z m365 -52 c0 -18 -4 -33 -10 -33 -5 0 -16 -4 -22 -8 -7 -5 -18 -5 -24 -2
-5 4 -18 0 -27 -8 -24 -21 -79 -29 -85 -13 -8 20 2 30 83 80 81 50 85 49 85
-16z m350 -24 c0 -47 -3 -63 -12 -59 -7 2 -13 0 -13 -5 0 -6 7 -10 15 -10 8 0
15 -7 15 -15 0 -8 5 -15 11 -15 8 0 7 -5 -1 -15 -10 -12 -15 -13 -20 -4 -5 8
-10 8 -14 1 -10 -17 -36 -2 -36 19 0 10 5 19 10 19 6 0 10 15 10 33 0 25 -6
37 -22 45 -18 8 -19 11 -5 11 12 1 17 9 17 29 0 34 6 41 28 35 14 -3 17 -16
17 -69z m-1984 28 c-8 -3 -8 -9 0 -24 8 -15 8 -26 0 -42 -6 -11 -12 -61 -13
-110 -3 -76 -6 -90 -20 -92 -18 -2 -23 15 -19 58 1 9 -3 19 -9 23 -6 4 -5 12
5 22 14 14 14 17 -2 36 -17 20 -17 20 1 14 13 -5 17 -3 13 7 -3 7 0 19 6 25 8
8 5 17 -12 35 -22 23 -22 25 -6 49 15 23 19 25 42 14 14 -6 20 -13 14 -15z
m-196 8 c3 -5 -1 -10 -10 -10 -9 0 -13 5 -10 10 3 6 8 10 10 10 2 0 7 -4 10
-10z m1872 -6 c-3 -3 -12 -4 -19 -1 -8 3 -5 6 6 6 11 1 17 -2 13 -5z m-1561
-19 c9 -22 9 -57 1 -82 -7 -19 -5 -22 23 -21 18 1 30 6 30 15 0 7 5 13 10 13
6 0 10 7 10 16 0 11 -6 14 -20 9 -24 -8 -25 -1 -4 24 16 18 18 18 69 1 73 -25
115 -48 115 -64 0 -8 10 -11 28 -9 37 5 75 -17 82 -47 6 -24 40 -42 40 -21 0
6 -4 11 -10 11 -5 0 -10 6 -10 13 1 6 9 2 19 -11 11 -12 25 -20 33 -17 7 3 22
-1 33 -9 18 -13 18 -14 2 -31 -12 -11 -21 -14 -30 -7 -15 12 -79 14 -72 2 3
-5 22 -14 43 -20 49 -16 84 -39 77 -50 -9 -14 -49 -12 -63 2 -9 9 -12 9 -12 0
0 -7 -9 -12 -20 -12 -11 0 -20 -4 -20 -9 0 -11 35 -21 76 -21 38 0 52 -30 23
-48 -26 -16 -39 -15 -39 4 0 11 -8 14 -32 12 -25 -2 -34 -8 -36 -25 -2 -13
-13 -23 -30 -28 -15 -3 -35 -8 -44 -11 -10 -3 -18 0 -18 6 0 6 5 8 10 5 6 -3
10 -1 10 4 0 6 7 11 15 11 8 0 15 9 15 20 0 15 -7 20 -25 20 -14 0 -25 2 -25
5 0 10 40 45 53 46 7 0 6 3 -3 6 -8 4 -20 13 -26 22 -10 12 -15 13 -27 3 -11
-10 -14 -31 -13 -87 l2 -74 -48 -11 c-73 -15 -125 -13 -132 6 -3 9 -3 21 1 27
9 14 13 96 6 120 -5 18 -5 18 -18 0 -7 -10 -17 -14 -21 -10 -5 4 -3 12 4 16
10 6 10 11 -3 21 -9 7 -15 8 -15 2 0 -6 -10 -7 -27 -3 -27 7 -28 11 -31 74 -2
50 0 67 10 67 10 0 10 2 -1 9 -14 9 -22 99 -9 107 5 3 6 10 3 15 -4 5 3 9 15
9 11 0 23 -7 26 -15z m1758 0 c17 -13 17 -15 3 -21 -12 -4 -15 -13 -11 -29 3
-13 1 -26 -5 -29 -5 -4 -8 -12 -5 -20 3 -7 -2 -13 -10 -13 -8 0 -13 4 -10 9 3
4 0 8 -6 8 -6 0 -9 4 -6 8 3 5 0 26 -6 46 -10 31 -9 39 3 47 19 12 31 11 53
-6z m-978 -61 c-3 -8 -17 -14 -32 -14 -19 0 -25 -4 -20 -15 3 -8 -2 -19 -12
-24 -19 -10 -79 -12 -65 -2 5 3 17 23 26 43 19 41 47 61 71 52 10 -4 19 1 23
12 7 16 9 14 11 -9 2 -16 1 -35 -2 -43z m209 32 c0 -9 6 -20 13 -25 7 -4 10
-15 6 -24 -9 -23 -24 -21 -24 3 0 12 -5 17 -14 14 -7 -3 -16 3 -20 12 -6 16
-8 15 -22 -4 -19 -27 -34 -28 -34 -2 0 14 -7 20 -22 21 -20 1 -19 2 5 9 16 5
35 6 42 4 8 -3 22 -1 32 5 23 13 38 9 38 -13z m647 -30 c-3 -32 0 -45 12 -49
9 -4 16 -2 16 3 0 6 8 10 18 10 16 -1 15 -2 -2 -15 -10 -8 -23 -12 -28 -9 -5
3 -22 3 -38 -1 -23 -5 -30 -12 -30 -30 0 -13 -4 -26 -10 -30 -5 -3 -8 7 -5 25
2 16 -1 30 -6 30 -5 0 -9 -6 -9 -12 0 -9 -4 -8 -10 2 -13 20 -13 70 0 70 6 0
10 -4 10 -8 0 -5 7 -9 15 -9 9 0 15 9 15 22 0 25 18 45 40 45 12 0 14 -9 12
-44z m-1127 14 c3 -5 1 -10 -4 -10 -6 0 -11 5 -11 10 0 6 2 10 4 10 3 0 8 -4
11 -10z m1014 -91 c1 -22 -39 -36 -118 -43 -55 -5 -62 -4 -51 9 16 19 5 49
-16 41 -9 -3 -20 -3 -26 0 -10 6 34 33 66 40 10 2 23 7 30 13 6 5 31 13 56 18
l45 9 7 -36 c4 -19 7 -42 7 -51z m-189 65 c0 -8 -5 -12 -10 -9 -6 4 -8 11 -5
16 9 14 15 11 15 -7z m758 -123 c3 -88 0 -137 -8 -146 -6 -7 -7 -16 -2 -19 5
-3 7 -17 5 -31 -3 -13 -9 -22 -14 -19 -10 6 -1 -25 12 -42 10 -12 2 -24 -17
-24 -16 0 -11 135 6 155 8 9 8 14 -1 17 -7 2 -11 40 -12 106 -1 56 -6 102 -10
102 -4 0 -3 9 3 21 25 45 35 14 38 -120z m-1042 51 c8 -7 14 -19 14 -26 0 -8
7 -19 15 -26 8 -7 12 -17 8 -23 -4 -6 -10 -4 -17 5 -6 9 -20 17 -31 19 -11 3
-20 11 -20 19 0 8 -9 15 -21 16 -11 1 -29 7 -40 13 -13 9 -14 11 -2 7 10 -3
18 2 21 14 6 22 50 31 56 11 2 -8 9 -21 17 -29z m748 36 c-3 -4 -12 -8 -20 -8
-8 0 -13 4 -10 8 3 5 12 9 20 9 8 0 13 -4 10 -9z m-2344 -28 c0 -5 -2 -10 -4
-10 -3 0 -8 5 -11 10 -3 6 -1 10 4 10 6 0 11 -4 11 -10z m1188 -14 c3 -12 -1
-17 -10 -14 -7 3 -15 13 -16 22 -3 12 1 17 10 14 7 -3 15 -13 16 -22z m1270
10 c-7 -8 -15 -12 -17 -11 -5 6 10 25 20 25 5 0 4 -6 -3 -14z m-38 -29 c0 -4
5 -5 10 -2 16 10 12 -2 -7 -21 -25 -25 -27 -55 -3 -61 17 -5 18 -7 4 -20 -21
-21 -14 -56 14 -68 30 -13 28 -20 -8 -23 -16 -1 -30 2 -30 8 0 5 -10 10 -23
10 -18 0 -22 5 -22 25 1 14 5 28 8 32 4 3 2 12 -4 19 -6 8 -7 23 -3 36 4 13 7
31 5 42 -1 10 3 22 10 27 16 10 49 7 49 -4z m-95 -8 c9 -14 -24 -38 -52 -39
-18 0 -23 6 -23 25 0 22 4 25 34 25 19 0 38 -5 41 -11z m-127 -9 c26 0 26 0
-8 -25 -19 -14 -40 -23 -48 -20 -7 2 -10 0 -7 -5 3 -6 15 -10 25 -10 10 0 23
-6 27 -13 4 -8 20 -17 36 -21 24 -6 27 -4 27 19 0 25 13 31 65 25 29 -3 31 -8
10 -24 -10 -7 -15 -18 -12 -23 4 -6 -2 -18 -13 -28 -17 -16 -21 -16 -50 -2
-17 9 -38 13 -46 10 -7 -3 -14 0 -14 6 0 6 -4 11 -10 11 -5 0 -10 -9 -10 -21
0 -11 4 -17 10 -14 6 3 7 -1 3 -10 -3 -9 -9 -13 -12 -8 -3 5 -32 8 -63 8 -31
-1 -57 1 -56 4 2 20 -3 31 -12 26 -6 -4 -9 -14 -8 -23 2 -12 -5 -18 -24 -20
-16 -2 -28 -8 -28 -13 0 -6 -9 -7 -21 -4 -12 4 -28 8 -35 9 -8 1 -20 8 -27 15
-10 11 -7 12 13 6 l25 -8 -28 27 c-21 20 -32 24 -42 16 -7 -6 -21 -7 -31 -3
-23 9 72 32 133 33 32 0 45 5 53 20 6 11 15 18 20 15 5 -3 11 -1 15 5 3 5 11
10 17 10 7 0 7 -4 0 -12 -5 -7 -9 -26 -7 -41 4 -32 15 -50 15 -23 0 13 5 16
19 11 17 -5 20 -2 18 20 -1 14 -9 30 -17 35 -12 8 -10 10 8 10 16 0 26 7 29
21 4 12 11 18 20 15 8 -3 26 -6 41 -6z m-194 -45 c-4 -8 -14 -15 -23 -15 -9 0
-33 -3 -53 -6 -54 -9 -51 17 5 38 46 17 80 9 71 -17z m216 -5 c0 -5 -5 -10
-11 -10 -5 0 -7 5 -4 10 3 6 8 10 11 10 2 0 4 -4 4 -10z m-723 -26 c-3 -3 -12
-4 -19 -1 -8 3 -5 6 6 6 11 1 17 -2 13 -5z m-955 -61 c7 -62 -3 -143 -18 -143
-10 0 -14 13 -14 39 0 22 -4 42 -8 45 -10 6 -14 74 -6 87 3 5 13 9 23 9 14 0
20 -9 23 -37z m1078 27 c13 -8 13 -11 1 -19 -7 -5 -10 -14 -6 -21 6 -9 3 -9
-14 -1 -23 13 -23 13 -15 35 7 18 13 19 34 6z m-800 -4 c0 -3 -4 -8 -10 -11
-5 -3 -10 -1 -10 4 0 6 5 11 10 11 6 0 10 -2 10 -4z m1390 -36 c0 -5 -5 -10
-11 -10 -5 0 -7 5 -4 10 3 6 8 10 11 10 2 0 4 -4 4 -10z m127 4 c-3 -3 -12 -4
-19 -1 -8 3 -5 6 6 6 11 1 17 -2 13 -5z m-719 -55 c3 -12 2 -12 -6 0 -9 13
-13 13 -29 0 -17 -13 -17 -13 -4 4 16 20 33 18 39 -4z m979 7 c-2 -6 -9 -11
-16 -11 -7 0 -19 -9 -27 -19 -8 -11 -14 -16 -14 -12 0 4 8 17 17 30 18 23 47
32 40 12z m-767 -20 c0 -11 -19 -15 -25 -6 -3 5 1 10 9 10 9 0 16 -2 16 -4z
m-230 -10 c0 -3 -4 -8 -10 -11 -5 -3 -10 -1 -10 4 0 6 5 11 10 11 6 0 10 -2
10 -4z m418 -16 c2 -5 23 -7 48 -3 37 5 44 3 44 -11 0 -19 16 -22 23 -3 3 9
26 11 83 7 62 -4 79 -8 82 -21 2 -12 -6 -18 -32 -21 -24 -3 -36 0 -36 8 0 6
-7 14 -15 18 -9 3 -15 0 -15 -10 0 -12 -12 -15 -55 -13 -31 1 -58 6 -61 11 -3
4 -13 4 -22 -1 -22 -11 -164 29 -170 48 -4 12 7 13 59 7 35 -3 65 -11 67 -16z
m493 -10 c6 0 7 5 4 10 -3 6 -2 10 4 10 5 0 9 -9 8 -20 -1 -11 -8 -20 -18 -20
-18 0 -32 24 -21 35 4 3 8 1 10 -4 2 -6 8 -11 13 -11z m-1688 -20 c-6 -21 -18
-26 -28 -11 -4 7 17 28 32 31 0 0 -1 -9 -4 -20z m84 -22 c21 -10 41 -14 47 -9
6 5 21 12 34 15 17 6 22 3 22 -12 0 -14 7 -19 24 -19 13 0 40 -6 61 -13 37
-12 37 -13 31 -54 -4 -22 -8 -63 -10 -91 -4 -69 -16 -125 -27 -125 -5 0 -9 -6
-9 -14 0 -8 -9 -18 -20 -21 -11 -3 -20 -14 -21 -23 0 -11 -3 -12 -6 -4 -9 24
-23 12 -23 -21 0 -18 -11 -49 -25 -70 -22 -31 -31 -37 -58 -34 -30 2 -32 0
-32 -33 0 -20 -11 -50 -24 -70 -30 -44 -148 -134 -180 -137 -13 -1 -29 -7 -35
-13 -18 -18 -24 -11 -30 33 -13 95 -11 105 18 130 23 20 25 25 12 30 -8 3 -18
2 -21 -4 -12 -19 -23 2 -21 41 1 22 -1 40 -4 40 -10 0 -9 73 1 93 6 9 7 22 3
29 -11 17 -12 92 -1 106 6 8 6 16 0 25 -16 19 -7 50 22 74 l26 23 -32 -7 c-32
-6 -32 -6 -26 27 4 18 7 43 7 56 0 18 7 25 28 30 15 4 32 10 37 15 6 4 30 12
53 17 32 8 44 7 53 -4 20 -24 58 -17 71 14 7 18 12 22 15 12 2 -8 20 -23 40
-32z m103 36 c0 -8 -72 -36 -78 -29 -9 9 31 34 56 35 12 0 22 -2 22 -6z m1410
-4 c13 -9 11 -13 -9 -31 -28 -23 -43 -21 -47 6 -5 31 27 44 56 25z m-1162 -27
c5 -17 -26 -29 -40 -15 -6 6 -7 15 -3 22 9 14 37 9 43 -7z m275 0 c-7 -2 -9
-11 -6 -20 4 -9 -1 -21 -12 -29 -26 -20 -30 -18 -32 16 -2 24 2 30 17 30 10 0
22 5 25 11 4 6 10 7 14 3 3 -4 1 -9 -6 -11z m-193 -23 c0 -22 -39 -34 -47 -14
-3 8 -3 20 0 28 8 20 47 8 47 -14z m491 -18 c-6 -2 -9 -8 -6 -13 4 -5 -3 -5
-15 -1 -12 4 -21 11 -21 15 1 4 1 11 1 17 0 6 11 5 26 -2 15 -7 21 -14 15 -16z
m854 13 c-16 -8 -36 -14 -42 -15 -7 0 -13 -7 -13 -15 0 -8 -8 -15 -17 -15 -13
0 -14 3 -5 12 9 9 7 14 -6 24 -16 12 -15 13 3 8 11 -2 34 0 50 5 45 14 64 11
30 -4z m-1315 -19 c0 -3 -4 -8 -10 -11 -5 -3 -10 -1 -10 4 0 6 5 11 10 11 6 0
10 -2 10 -4z m90 -20 c0 -23 -18 -29 -35 -12 -11 11 -12 16 -2 19 23 10 37 7
37 -7z m244 6 c12 -20 14 -67 4 -86 -10 -19 -10 -20 5 -7 19 15 22 8 6 -20 -5
-11 -12 -43 -14 -72 -2 -29 -4 -54 -5 -57 -2 -18 -20 31 -20 55 0 17 -4 36 -9
44 -6 9 -5 21 2 33 9 14 9 23 -1 38 -7 11 -8 20 -3 20 6 0 15 -8 20 -17 10
-17 10 -16 11 2 0 11 -7 32 -14 48 -13 23 -13 27 -1 27 8 0 16 -4 19 -8z m326
-54 c63 -31 123 -59 133 -62 12 -4 17 -16 17 -46 0 -39 1 -41 27 -38 17 2 32
12 40 28 11 23 59 48 93 49 12 0 11 -2 -2 -10 -11 -6 -18 -22 -18 -39 0 -16
-4 -31 -9 -35 -5 -3 -9 -26 -8 -52 1 -29 -3 -48 -10 -50 -18 -6 -16 -33 2 -33
18 0 35 -38 27 -59 -4 -10 -1 -13 11 -8 9 3 17 2 17 -3 0 -5 -10 -10 -22 -12
-22 -3 -23 -7 -22 -90 1 -53 -2 -88 -8 -88 -15 0 -68 60 -68 76 0 8 -7 14 -15
14 -10 0 -15 10 -15 33 -1 29 -2 30 -14 15 -20 -27 -35 -22 -96 35 -30 28 -79
73 -108 99 -56 51 -60 58 -37 58 8 0 15 7 15 16 0 14 -2 14 -22 0 -25 -18 -48
-21 -48 -7 0 5 8 8 18 7 12 -1 16 5 15 22 -3 24 7 28 25 10 9 -9 12 -8 12 4 0
10 -12 19 -30 23 -34 7 -34 8 -19 36 7 13 7 24 1 32 -16 19 -19 142 -4 134 4
-2 59 -29 122 -59z m-1499 43 c6 10 9 6 9 -13 0 -16 -4 -28 -9 -28 -10 0 -21
25 -20 43 0 7 3 7 6 -2 5 -11 7 -11 14 0z m1983 -23 c11 -7 18 -100 9 -135 -2
-12 -11 -24 -19 -27 -9 -3 -12 -1 -9 5 4 6 0 16 -8 22 -22 17 -26 48 -10 80 8
15 11 32 8 37 -3 6 -2 10 3 10 6 0 8 10 6 23 -2 12 -1 15 2 7 4 -8 12 -18 18
-22z m-2079 -100 c23 -13 11 -43 -18 -45 -20 -1 -27 3 -27 17 0 29 -11 50 -26
50 -12 0 -12 4 1 24 11 16 13 26 6 31 -21 12 -11 34 17 37 26 3 27 1 30 -52 2
-33 9 -58 17 -62z m1442 116 c-3 -3 -12 -4 -19 -1 -8 3 -5 6 6 6 11 1 17 -2
13 -5z m533 -4 c0 -5 -4 -10 -10 -10 -5 0 -10 5 -10 10 0 6 5 10 10 10 6 0 10
-4 10 -10z m-1206 -15 c-4 -8 -11 -15 -16 -15 -6 0 -5 6 2 15 7 8 14 15 16 15
2 0 1 -7 -2 -15z m622 -1 c-3 -8 -2 -12 4 -9 6 3 10 2 10 -3 0 -5 -11 -12 -25
-14 -25 -5 -28 6 -10 29 14 17 28 16 21 -3z m588 -19 c-4 -8 1 -17 9 -21 9 -3
13 -12 10 -20 -9 -23 -19 -16 -30 21 -9 28 -8 35 3 35 8 0 11 -6 8 -15z m53 9
c-3 -3 -12 -4 -19 -1 -8 3 -5 6 6 6 11 1 17 -2 13 -5z m-2117 -18 c0 -3 -4 -8
-10 -11 -5 -3 -10 -1 -10 4 0 6 5 11 10 11 6 0 10 -2 10 -4z m861 -79 c-16
-16 -26 0 -10 19 9 11 15 12 17 4 2 -6 -1 -17 -7 -23z m-846 -6 c0 -8 -8 -15
-17 -17 -12 -1 -18 4 -18 18 0 13 6 18 18 16 9 -2 17 -10 17 -17z m829 -46
c-4 -8 -8 -15 -10 -15 -2 0 -4 7 -4 15 0 8 4 15 10 15 5 0 7 -7 4 -15z m-954
-30 c0 -8 -4 -15 -10 -15 -5 0 -10 7 -10 15 0 8 5 15 10 15 6 0 10 -7 10 -15z
m277 -17 l-6 -33 15 28 c18 33 24 35 16 5 -11 -46 -43 -46 -37 0 5 34 4 32 11
32 4 0 4 -15 1 -32z m1307 -13 c-2 -54 -15 -62 -26 -17 -6 23 -5 38 3 48 19
23 24 16 23 -31z m813 -7 c-3 -7 -5 -2 -5 12 0 14 2 19 5 13 2 -7 2 -19 0 -25z
m-1474 -13 c-7 -21 -13 -19 -13 6 0 11 4 18 10 14 5 -3 7 -12 3 -20z m-53 -15
c4 0 6 -9 3 -20 -3 -11 0 -20 6 -20 12 0 -7 -50 -24 -62 -14 -10 -25 24 -13
39 6 7 8 25 5 40 -3 15 -2 34 1 42 6 14 7 14 10 -1 2 -10 7 -18 12 -18z m-686
-4 c-5 -21 -10 -103 -13 -203 -1 -22 -6 -33 -16 -33 -8 0 -15 5 -15 10 0 6 5
10 10 10 11 0 3 47 -10 65 -12 14 -14 96 -4 120 7 16 42 53 52 55 1 0 0 -11
-4 -24z m-111 -50 c6 -14 -34 -32 -60 -27 -7 1 -13 -3 -13 -9 0 -7 -8 -9 -20
-5 -11 3 -20 2 -20 -3 0 -18 -31 -22 -46 -7 -17 16 -10 37 9 29 7 -2 37 5 67
16 66 23 76 24 83 6z m225 -40 c1 -24 4 -53 7 -65 2 -12 0 -19 -6 -16 -5 4 -9
0 -9 -7 -1 -22 -24 25 -28 56 -3 28 14 76 27 76 3 0 7 -20 9 -44z m1963 11
c-10 -9 -11 -8 -5 6 3 10 9 15 12 12 3 -3 0 -11 -7 -18z m-2381 -7 c0 -5 -8
-10 -17 -10 -15 0 -16 2 -3 10 19 12 20 12 20 0z m212 -37 c0 -10 0 -28 -1
-41 -1 -16 4 -25 18 -29 27 -7 18 -20 -11 -18 -20 2 -23 7 -21 43 1 37 0 40
-13 27 -19 -18 -28 -20 -18 -2 23 40 43 49 46 20z m2313 -31 c-3 -3 -11 0 -18
7 -9 10 -8 11 6 5 10 -3 15 -9 12 -12z m-1627 -21 c-11 -17 -10 -25 1 -42 7
-12 9 -24 4 -28 -5 -3 -15 -21 -22 -38 -8 -18 -17 -33 -21 -33 -19 0 -19 35 0
67 11 19 20 44 20 57 0 12 5 27 12 34 17 17 21 7 6 -17z m62 25 c0 -3 -4 -8
-10 -11 -5 -3 -10 -1 -10 4 0 6 5 11 10 11 6 0 10 -2 10 -4z m679 -18 c11 -15
11 -18 -1 -18 -7 0 -14 10 -15 21 -1 12 -1 20 0 18 2 -2 9 -12 16 -21z m-1464
-8 c11 9 12 7 8 -9 -3 -11 -11 -25 -17 -31 -10 -7 -13 -2 -13 23 0 17 2 26 5
19 3 -9 7 -10 17 -2z m2340 -20 c3 -5 -1 -10 -10 -10 -9 0 -13 5 -10 10 3 6 8
10 10 10 2 0 7 -4 10 -10z m-1521 -72 c-6 -51 -24 -91 -24 -54 0 22 21 106 27
106 2 0 1 -24 -3 -52z m1536 10 c0 -11 -28 -10 -34 1 -4 5 -3 16 0 25 6 15 8
15 20 -1 7 -10 14 -21 14 -25z m-2334 4 c1 -7 0 -8 -3 -2 -2 5 -9 8 -14 4 -5
-3 -9 0 -9 6 0 15 23 7 26 -8z m217 -2 c3 -11 2 -20 -3 -20 -4 0 -10 9 -13 20
-3 11 -2 20 3 20 4 0 10 -9 13 -20z m1217 0 c0 -5 -5 -10 -11 -10 -5 0 -7 5
-4 10 3 6 8 10 11 10 2 0 4 -4 4 -10z m970 5 c0 -7 -30 -13 -34 -7 -3 4 4 9
15 9 10 1 19 0 19 -2z m-1756 -136 c-9 -10 -14 -22 -11 -26 9 -8 -22 -43 -39
-43 -18 0 -25 -15 -17 -36 6 -16 7 -16 20 2 7 10 13 13 13 7 0 -6 -9 -22 -21
-37 -14 -18 -20 -37 -17 -56 3 -16 2 -31 -2 -32 -3 -2 -15 -19 -26 -39 l-21
-36 36 -9 c34 -9 37 -8 37 9 -1 11 6 22 14 25 12 4 13 3 2 -10 -7 -9 -10 -23
-6 -32 3 -9 1 -16 -6 -16 -6 0 -8 -4 -5 -10 3 -5 -15 -30 -40 -55 -25 -25 -45
-50 -45 -55 0 -6 -5 -10 -10 -10 -6 0 -4 13 5 30 8 16 15 36 15 44 0 8 9 20
20 26 21 11 28 40 9 40 -6 0 -9 -7 -5 -15 3 -9 0 -15 -9 -15 -8 0 -15 7 -15
16 0 8 -4 12 -10 9 -5 -3 -10 2 -10 11 0 14 -3 15 -12 6 -21 -21 -26 -14 -26
31 0 31 6 52 23 71 14 17 21 34 18 47 -3 12 -1 24 4 28 6 3 22 28 37 56 16 27
35 54 44 61 8 6 12 16 8 22 -7 12 4 16 37 13 9 -1 17 4 18 11 0 11 2 11 6 0 3
-7 -3 -22 -13 -33z m1261 31 c-3 -5 -10 -10 -16 -10 -5 0 -9 5 -9 10 0 6 7 10
16 10 8 0 12 -4 9 -10z m-1421 -9 c3 -4 -6 -33 -21 -62 -14 -30 -47 -121 -74
-204 -27 -82 -53 -157 -57 -165 -5 -8 -7 -33 -6 -55 l3 -40 -8 40 c-5 22 -8
42 -6 45 2 3 6 34 10 70 10 107 80 297 121 331 8 6 14 20 14 30 0 20 15 26 24
10z m306 -12 c0 -5 -4 -9 -10 -9 -5 0 -10 7 -10 16 0 8 5 12 10 9 6 -3 10 -10
10 -16z m1174 -2 c26 -21 27 -26 16 -46 l-12 -24 -29 30 c-20 19 -28 35 -23
46 8 22 13 21 48 -6z m-1744 -1 c9 -12 8 -15 -8 -13 -12 0 -18 6 -15 14 6 16
8 16 23 -1z m568 -58 c-22 -13 -28 -9 -28 19 0 26 0 26 20 8 16 -14 17 -20 8
-27z m1362 22 c0 -13 -7 -20 -18 -20 -24 0 -32 8 -25 26 8 22 43 17 43 -6z
m-1933 -32 c-3 -8 -6 -5 -6 6 -1 11 2 17 5 13 3 -3 4 -12 1 -19z m584 -51 c-6
-15 -13 -27 -17 -27 -3 0 -4 7 0 15 3 9 0 15 -9 15 -8 0 -15 5 -15 11 0 6 9 8
22 4 18 -6 20 -4 14 11 -5 14 -4 16 4 8 7 -7 8 -19 1 -37z m1219 13 c0 -5 -4
-10 -10 -10 -5 0 -10 5 -10 10 0 6 5 10 10 10 6 0 10 -4 10 -10z m-1236 -58
c3 -5 -1 -9 -9 -9 -8 0 -15 4 -15 9 0 4 4 8 9 8 6 0 12 -4 15 -8z m6 -37 c0
-8 -2 -15 -4 -15 -2 0 -6 7 -10 15 -3 8 -1 15 4 15 6 0 10 -7 10 -15z m170
-100 c-6 -30 -8 -33 -9 -13 -1 25 8 62 14 56 2 -2 -1 -21 -5 -43z m-74 -65
c15 13 16 12 10 -18 -5 -19 -4 -32 2 -32 12 0 22 -49 12 -55 -8 -5 -45 59 -55
95 -4 18 -4 21 4 11 8 -13 12 -13 27 -1z m141 -122 c-3 -8 -6 -5 -6 6 -1 11 2
17 5 13 3 -3 4 -12 1 -19z m-87 -64 c0 -8 -4 -12 -10 -9 -5 3 -10 10 -10 16 0
5 5 9 10 9 6 0 10 -7 10 -16z"/>
<path d="M1127 2443 c-12 -11 -7 -41 7 -46 18 -7 28 29 12 43 -7 5 -16 7 -19
3z"/>
<path d="M1450 2520 c0 -5 5 -10 11 -10 5 0 7 5 4 10 -3 6 -8 10 -11 10 -2 0
-4 -4 -4 -10z"/>
<path d="M1096 2215 c-3 -9 -6 -26 -5 -38 1 -14 4 -9 9 13 9 37 7 52 -4 25z"/>
<path d="M1250 2195 c0 -16 6 -25 15 -25 8 0 15 9 15 19 0 10 -7 21 -15 25
-11 4 -15 -1 -15 -19z"/>
<path d="M1090 2099 c0 -24 3 -30 16 -25 9 3 20 6 25 6 5 0 9 5 9 11 0 6 -7 9
-15 5 -8 -3 -15 -1 -15 4 0 6 9 10 20 10 11 0 20 5 20 10 0 6 -13 10 -30 10
-27 0 -30 -3 -30 -31z"/>
<path d="M1247 2108 c-7 -25 -3 -33 12 -23 13 8 15 45 2 45 -5 0 -11 -10 -14
-22z"/>
<path d="M1210 2105 c0 -9 6 -12 15 -9 8 4 15 10 15 15 0 5 -7 9 -15 9 -8 0
-15 -7 -15 -15z"/>
<path d="M1635 2340 c3 -5 10 -10 16 -10 5 0 9 5 9 10 0 6 -7 10 -16 10 -8 0
-12 -4 -9 -10z"/>
<path d="M1132 1959 c2 -12 -3 -24 -9 -26 -8 -3 -13 4 -13 16 0 12 -4 21 -10
21 -14 0 -13 -33 2 -48 17 -17 31 -14 50 11 15 22 15 24 -4 36 -17 11 -19 10
-16 -10z"/>
<path d="M900 1810 c13 -8 12 -10 -5 -11 -11 -1 -28 -1 -37 0 -10 1 -18 -4
-18 -13 0 -9 6 -16 14 -16 8 0 16 -6 19 -12 3 -10 10 -10 30 1 15 8 27 19 27
26 0 14 -21 35 -34 35 -6 0 -4 -5 4 -10z"/>
<path d="M1121 1798 c-7 -17 -10 -18 -10 -5 -1 24 -21 22 -21 -2 0 -29 21 -37
37 -15 12 16 15 17 24 4 8 -12 9 -10 7 9 -4 33 -26 38 -37 9z"/>
<path d="M1090 1710 c0 -31 20 -43 20 -12 1 16 1 16 14 -1 16 -20 50 -12 42
10 -3 8 -6 19 -6 24 0 5 -7 9 -15 9 -8 0 -15 -5 -15 -12 0 -9 -3 -9 -12 0 -19
19 -28 14 -28 -18z"/>
<path d="M880 1715 c-8 -10 -9 -15 -1 -15 6 0 11 -7 11 -16 0 -9 6 -14 13 -11
15 5 16 49 1 54 -6 2 -17 -3 -24 -12z"/>
<path d="M1085 1400 c-4 -6 8 -10 29 -10 20 0 36 5 36 10 0 6 -13 10 -29 10
-17 0 -33 -4 -36 -10z"/>
<path d="M1317 1403 c-10 -9 5 -33 19 -33 8 0 14 -5 14 -12 0 -6 3 -9 6 -5 9
9 -5 45 -20 50 -8 3 -16 3 -19 0z"/>
<path d="M1202 1294 c1 -72 12 -86 53 -64 20 11 22 15 12 33 -9 15 -9 21 1 24
6 3 12 20 12 39 0 33 -1 34 -40 34 l-39 0 1 -66z"/>
<path d="M1090 1325 c0 -17 6 -25 17 -25 13 0 14 3 6 11 -6 6 -9 18 -6 25 3 8
0 14 -6 14 -6 0 -11 -11 -11 -25z"/>
<path d="M1124 1335 c-9 -23 15 -48 32 -34 19 16 17 26 -6 39 -16 9 -22 8 -26
-5z"/>
<path d="M1355 1330 c5 -9 1 -10 -14 -5 -18 5 -21 2 -21 -19 0 -21 4 -25 23
-23 20 2 22 -2 19 -39 -2 -25 1 -45 8 -49 23 -14 31 11 23 76 -6 51 -12 64
-27 67 -12 3 -16 0 -11 -8z"/>
<path d="M1246 1174 c-4 -15 -5 -29 -2 -31 9 -9 26 8 26 27 0 30 -17 32 -24 4z"/>
<path d="M1210 1170 c0 -5 4 -10 9 -10 6 0 13 5 16 10 3 6 -1 10 -9 10 -9 0
-16 -4 -16 -10z"/>
<path d="M1310 1156 c0 -18 27 -29 36 -14 4 5 0 14 -7 19 -20 13 -29 11 -29
-5z"/>
<path d="M1240 1095 c0 -23 5 -35 13 -35 9 0 14 13 15 35 1 25 -3 35 -13 35
-10 0 -15 -11 -15 -35z"/>
<path d="M1202 1031 c-22 -16 -23 -19 -7 -34 9 -9 27 -17 41 -17 20 0 24 5 24
29 0 17 -6 31 -16 35 -19 7 -15 9 -42 -13z"/>
<path d="M2490 1156 c0 -35 14 -49 23 -23 4 10 7 10 18 0 20 -20 29 -16 29 13
0 19 -5 24 -18 22 -11 -2 -26 3 -35 11 -15 12 -17 10 -17 -23z"/>
<path d="M2487 1078 c-6 -44 0 -51 36 -44 31 6 47 21 47 43 0 11 -8 14 -61 29
-12 3 -18 -4 -22 -28z"/>
<path d="M2493 1013 c-26 -10 -13 -48 22 -64 l33 -16 7 34 c3 18 3 38 0 43 -6
10 -41 12 -62 3z m37 -18 c10 -12 10 -15 -4 -15 -9 0 -16 7 -16 15 0 8 2 15 4
15 2 0 9 -7 16 -15z"/>
<path d="M1403 1045 c-3 -9 -3 -18 -1 -21 3 -3 8 4 11 16 6 23 -1 27 -10 5z"/>
<path d="M1586 3064 c-9 -25 -7 -64 4 -64 6 0 9 3 8 8 -1 4 3 17 10 28 9 18 9
24 -2 33 -10 9 -15 8 -20 -5z"/>
<path d="M1813 3070 c-27 -11 -30 -30 -5 -30 10 0 23 -5 29 -11 9 -9 12 -4 11
20 -1 34 -2 34 -35 21z"/>
<path d="M1929 3070 c-1 -5 -2 -14 -3 -19 0 -5 -4 -13 -8 -17 -14 -13 -8 -24
12 -24 16 0 20 7 20 35 0 19 -4 35 -10 35 -5 0 -11 -4 -11 -10z"/>
<path d="M2472 3069 c2 -7 10 -15 17 -17 8 -3 12 1 9 9 -2 7 -10 15 -17 17 -8
3 -12 -1 -9 -9z"/>
<path d="M1108 3046 c-6 -15 -9 -28 -6 -31 11 -11 38 8 38 25 0 30 -19 33 -32
6z"/>
<path d="M1760 3060 c0 -5 5 -10 10 -10 6 0 10 5 10 10 0 6 -4 10 -10 10 -5 0
-10 -4 -10 -10z"/>
<path d="M1680 3035 c0 -20 5 -25 25 -25 20 0 25 5 25 25 0 20 -5 25 -25 25
-20 0 -25 -5 -25 -25z"/>
<path d="M2043 3003 c-37 -7 -26 -18 17 -19 26 -1 39 3 37 10 -4 13 -22 15
-54 9z"/>
<path d="M1093 2981 c-14 -23 -5 -36 30 -45 22 -5 27 -3 27 13 0 14 -5 18 -20
14 -15 -4 -19 -2 -14 10 8 22 -10 29 -23 8z"/>
<path d="M1684 2988 c-5 -7 -9 -39 -10 -70 -2 -67 12 -87 45 -66 27 16 27 45
1 53 -25 8 -26 23 -2 21 13 -1 17 7 17 34 0 28 -4 36 -22 38 -11 2 -25 -3 -29
-10z m36 -28 c0 -5 -7 -10 -15 -10 -8 0 -15 5 -15 10 0 6 7 10 15 10 8 0 15
-4 15 -10z m-10 -74 c0 -3 -4 -8 -10 -11 -5 -3 -10 -1 -10 4 0 6 5 11 10 11 6
0 10 -2 10 -4z"/>
<path d="M1912 2988 c-14 -14 -16 -44 -2 -53 5 -3 6 -16 2 -28 -4 -12 -8 -47
-7 -77 1 -50 3 -55 23 -56 31 -2 56 24 42 41 -7 9 -7 21 0 39 12 33 13 39 1
32 -5 -4 -7 3 -4 14 3 11 1 20 -3 20 -5 0 -9 17 -9 37 0 40 -20 54 -43 31z"/>
<path d="M2075 2960 c-4 -6 -15 -8 -26 -5 -11 4 -19 2 -19 -4 0 -6 14 -11 30
-11 20 0 30 5 30 15 0 17 -6 19 -15 5z"/>
<path d="M2027 2923 c-14 -13 -7 -50 12 -67 19 -17 19 -17 14 3 -3 12 -1 21 6
21 6 0 11 -4 11 -10 0 -15 17 -12 23 4 11 29 -4 56 -32 56 -15 0 -31 -3 -34
-7z"/>
<path d="M2495 2898 c3 -17 -1 -28 -8 -28 -7 -1 2 -7 18 -15 26 -11 20 -18
-11 -14 -9 1 -24 -23 -24 -38 0 -6 8 -19 17 -29 14 -13 15 -18 5 -22 -10 -3
-9 -8 4 -23 13 -15 14 -24 5 -50 -12 -34 -8 -49 15 -49 8 0 14 -5 14 -11 0 -6
-8 -9 -18 -7 -14 4 -18 -2 -18 -34 -1 -40 4 -46 24 -26 9 9 12 8 12 -5 0 -9 4
-17 9 -17 12 0 23 60 13 74 -4 6 -7 29 -7 51 1 22 2 66 3 98 2 50 5 59 25 67
21 8 21 9 -5 9 -26 1 -28 4 -28 45 0 38 -3 44 -24 48 -22 4 -24 2 -21 -24z"/>
<path d="M1845 2909 c-12 -19 -12 -56 0 -166 13 -113 16 -101 19 74 1 96 -4
118 -19 92z"/>
<path d="M2153 2913 c-7 -3 -13 -12 -13 -22 0 -9 -5 -22 -11 -28 -8 -8 -8 -13
0 -17 6 -4 11 -2 11 4 0 7 6 10 14 7 9 -4 16 3 18 18 6 28 -2 44 -19 38z"/>
<path d="M2387 2879 c-25 -14 -21 -29 8 -27 27 2 29 6 17 25 -5 8 -13 8 -25 2z"/>
<path d="M663 2795 c2 -44 8 -79 13 -78 15 3 17 34 4 58 -9 18 -9 27 0 45 10
18 9 25 -5 39 -15 15 -16 10 -12 -64z"/>
<path d="M1670 2805 c0 -14 5 -25 10 -25 6 0 10 7 10 15 0 8 4 15 8 15 4 0 8
-9 8 -20 0 -11 -5 -20 -10 -20 -6 0 -5 -5 2 -12 7 -7 12 -22 12 -35 0 -13 5
-23 10 -23 15 0 12 47 -2 53 -10 4 -10 7 0 18 6 7 12 23 12 36 0 19 -5 23 -30
23 -25 0 -30 -4 -30 -25z"/>
<path d="M2025 2821 c-3 -5 -1 -12 5 -16 5 -3 10 1 10 9 0 18 -6 21 -15 7z"/>
<path d="M2070 2816 c0 -9 5 -16 10 -16 6 0 10 4 10 9 0 6 -4 13 -10 16 -5 3
-10 -1 -10 -9z"/>
<path d="M2630 2817 c25 -12 28 -26 14 -67 -4 -13 -6 -13 -15 0 -8 13 -10 13
-19 0 -5 -8 -7 -22 -3 -30 4 -8 6 -32 5 -52 -1 -20 3 -40 8 -43 6 -4 6 -15 0
-30 -5 -14 -6 -24 -2 -24 27 4 44 -3 38 -16 -8 -21 7 -19 27 3 21 23 22 42 3
42 -28 0 -27 20 1 45 15 14 21 23 11 19 -12 -4 -17 3 -22 33 -9 54 -5 113 8
113 6 0 4 5 -4 10 -8 5 -28 9 -45 9 l-30 -1 25 -11z"/>
<path d="M2001 2804 c0 -11 3 -14 6 -6 3 7 2 16 -1 19 -3 4 -6 -2 -5 -13z"/>
<path d="M2100 2800 c0 -5 5 -10 10 -10 6 0 10 5 10 10 0 6 -4 10 -10 10 -5 0
-10 -4 -10 -10z"/>
<path d="M2123 2788 c-5 -7 -6 -24 -2 -38 l7 -25 1 26 c1 14 6 30 13 37 8 8 8
12 1 12 -6 0 -15 -6 -20 -12z"/>
<path d="M2362 2788 c3 -7 13 -15 22 -16 12 -3 17 1 14 10 -3 7 -13 15 -22 16
-12 3 -17 -1 -14 -10z"/>
<path d="M2708 2787 c18 -10 20 -15 10 -26 -11 -11 -10 -13 5 -8 9 4 17 2 17
-3 0 -6 -5 -10 -11 -10 -6 0 -9 -9 -6 -20 3 -11 2 -20 -2 -20 -9 0 -6 -99 4
-108 9 -9 25 19 25 46 0 12 5 22 11 22 6 0 8 9 4 21 -5 15 -4 19 4 15 20 -12
12 30 -12 65 -14 21 -32 35 -47 37 l-25 2 23 -13z"/>
<path d="M2025 2770 c-4 -7 -2 -16 6 -20 10 -7 10 -11 -1 -24 -7 -9 -10 -19
-6 -23 12 -12 59 12 67 35 7 19 5 22 -14 22 -13 0 -28 5 -34 11 -8 8 -13 7
-18 -1z"/>
<path d="M1910 2742 c0 -14 35 -42 53 -42 9 0 17 -7 17 -15 0 -8 4 -15 9 -15
20 0 3 31 -29 55 -35 26 -50 31 -50 17z"/>
<path d="M1675 2730 c-3 -5 1 -10 9 -10 9 0 16 5 16 10 0 6 -4 10 -9 10 -6 0
-13 -4 -16 -10z"/>
<path d="M2387 2706 c-7 -19 3 -56 15 -56 6 0 8 6 5 13 -3 8 -1 20 4 28 7 12
9 12 9 0 0 -8 2 -12 5 -9 9 9 -6 38 -20 38 -7 0 -15 -6 -18 -14z"/>
<path d="M671 2678 c-1 -25 -5 -28 -36 -28 -30 0 -34 -2 -23 -14 9 -10 15 -10
20 -3 4 6 10 9 13 5 3 -3 -2 -13 -11 -23 -16 -16 -15 -18 10 -43 28 -29 27
-31 30 38 1 14 4 30 7 35 3 6 3 21 -2 35 l-7 25 -1 -27z"/>
<path d="M2105 2690 c3 -5 8 -10 11 -10 2 0 4 5 4 10 0 6 -5 10 -11 10 -5 0
-7 -4 -4 -10z"/>
<path d="M2032 2660 c1 -21 6 -30 18 -30 12 0 19 10 22 30 4 26 1 30 -18 30
-19 0 -23 -5 -22 -30z"/>
<path d="M1682 2668 c-28 -28 2 -67 37 -48 26 14 27 36 2 50 -24 13 -24 13
-39 -2z m28 -24 c0 -8 -5 -12 -10 -9 -6 4 -8 11 -5 16 9 14 15 11 15 -7z"/>
<path d="M500 2650 c0 -11 5 -20 10 -20 6 0 10 5 10 10 0 6 12 10 26 10 14 0
23 4 19 10 -3 6 -19 10 -36 10 -22 0 -29 -5 -29 -20z"/>
<path d="M1910 2663 c0 -4 12 -17 27 -29 l27 -21 -32 -8 c-28 -6 -32 -10 -29
-33 3 -24 27 -45 27 -24 0 6 9 8 20 5 16 -4 20 0 21 18 0 13 2 33 4 45 3 14
-4 25 -24 37 -32 19 -41 21 -41 10z"/>
<path d="M2760 2630 c-1 -14 -2 -28 -1 -32 0 -5 -4 -8 -10 -8 -5 0 -8 -4 -5
-9 4 -5 1 -11 -6 -13 -8 -3 -8 -9 0 -24 10 -18 11 -17 22 10 6 17 9 46 7 65
-3 27 -4 30 -7 11z"/>
<path d="M2380 2616 c0 -34 14 -40 35 -16 20 22 19 25 -12 34 -20 6 -23 4 -23
-18z"/>
<path d="M1852 2610 c0 -14 2 -19 5 -12 2 6 2 18 0 25 -3 6 -5 1 -5 -13z"/>
<path d="M2055 2598 c-4 -10 -4 -26 0 -35 8 -17 8 -17 12 0 3 9 3 25 0 35 -4
16 -4 16 -12 0z"/>
<path d="M2384 2556 c-4 -9 -4 -25 -1 -36 3 -11 2 -22 -3 -25 -4 -3 -6 -19 -5
-37 4 -43 3 -42 19 -29 7 6 20 9 29 5 22 -8 20 53 -2 66 -11 6 -12 9 -3 10 20
0 11 54 -11 58 -9 2 -20 -4 -23 -12z"/>
<path d="M1907 2508 c-6 -19 3 -46 18 -52 7 -2 23 6 36 20 19 20 20 24 6 24
-9 0 -17 5 -17 10 0 15 -38 12 -43 -2z"/>
<path d="M2655 2511 c-6 -5 -21 -11 -35 -13 -23 -4 -23 -5 -5 -12 11 -4 28
-12 38 -17 13 -7 19 -5 23 5 8 20 -9 49 -21 37z"/>
<path d="M416 2495 c-9 -26 -7 -32 5 -12 6 10 9 21 6 23 -2 3 -7 -2 -11 -11z"/>
<path d="M2513 2503 c-27 -5 -31 -18 -5 -19 9 -1 23 -3 31 -5 8 -2 17 4 19 14
3 17 -2 18 -45 10z"/>
<path d="M2611 2432 c-6 -10 -11 -56 -12 -102 -2 -67 0 -85 14 -95 11 -8 13
-15 6 -22 -18 -18 -6 -58 18 -61 18 -3 21 -9 18 -33 -2 -18 1 -29 8 -29 23 0
33 16 35 55 1 34 0 36 -8 18 -5 -13 -11 -23 -12 -23 -6 0 0 151 6 157 3 4 6
17 6 29 0 17 -4 22 -15 18 -18 -7 -20 17 -2 35 6 8 7 11 1 8 -7 -4 -9 2 -6 19
8 41 -38 61 -57 26z"/>
<path d="M2489 2413 c-1 -43 2 -118 6 -121 2 -2 17 -1 33 3 36 8 48 32 27 55
-11 12 -12 24 -6 47 11 37 7 43 -31 43 -24 0 -28 -4 -29 -27z"/>
<path d="M1902 2418 c6 -18 28 -21 28 -4 0 9 -7 16 -16 16 -9 0 -14 -5 -12
-12z"/>
<path d="M2685 2419 c-4 -6 -5 -12 -2 -15 2 -3 7 2 10 11 7 17 1 20 -8 4z"/>
<path d="M2390 2414 c-18 -5 -24 -111 -10 -150 6 -14 6 -24 1 -24 -5 0 -11 6
-14 13 -3 8 -7 5 -12 -7 -6 -13 -3 -23 10 -32 23 -17 71 -18 81 -2 5 8 0 9
-14 6 -12 -4 -22 -2 -22 3 0 5 5 9 10 9 6 0 10 7 10 15 0 8 -9 15 -20 15 -11
0 -20 5 -20 10 0 6 6 10 13 10 6 0 19 4 27 10 12 7 12 12 -4 29 -11 12 -14 21
-8 21 16 0 15 27 0 34 -10 5 -10 7 0 12 6 3 12 12 12 20 0 14 -10 16 -40 8z"/>
<path d="M2265 2374 c-9 -15 -12 -23 -6 -20 11 7 35 46 28 46 -3 0 -12 -12
-22 -26z"/>
<path d="M487 2363 c-14 -13 -6 -23 29 -38 43 -18 44 -18 44 -5 0 6 -7 10 -16
10 -8 0 -12 5 -9 10 4 6 10 8 15 5 5 -3 11 -1 15 5 3 6 -1 13 -10 17 -10 3
-21 0 -25 -7 -7 -11 -12 -11 -23 -2 -7 7 -17 9 -20 5z"/>
<path d="M1907 2353 c-11 -17 0 -48 18 -51 12 -3 15 0 10 10 -6 10 -5 11 6 1
21 -20 31 -15 27 15 -2 21 -9 28 -30 30 -14 2 -29 -1 -31 -5z"/>
<path d="M627 2303 c-15 -15 -6 -52 13 -58 21 -7 50 9 50 28 0 22 -48 45 -63
30z m33 -27 c0 -3 -4 -8 -10 -11 -5 -3 -10 -1 -10 4 0 6 5 11 10 11 6 0 10 -2
10 -4z"/>
<path d="M1542 2245 c0 -16 2 -22 5 -12 2 9 2 23 0 30 -3 6 -5 -1 -5 -18z"/>
<path d="M2291 2244 c-11 -8 -21 -19 -21 -23 0 -12 48 -1 60 14 16 20 -14 26
-39 9z"/>
<path d="M2135 2220 c-3 -5 -1 -10 4 -10 6 0 11 5 11 10 0 6 -2 10 -4 10 -3 0
-8 -4 -11 -10z"/>
<path d="M615 2212 c-2 -3 -2 -9 1 -13 7 -12 64 -12 64 0 0 9 -57 21 -65 13z"/>
<path d="M1673 2176 c2 -26 7 -31 34 -33 23 -2 33 2 35 15 8 35 -2 48 -37 48
-32 0 -34 -2 -32 -30z"/>
<path d="M2370 2155 c0 -15 18 -40 24 -34 3 3 -1 14 -9 25 -8 10 -14 15 -15 9z"/>
<path d="M3067 2115 c-4 -8 -2 -17 3 -20 6 -4 10 3 10 14 0 25 -6 27 -13 6z"/>
<path d="M2290 2089 c0 -5 5 -7 10 -4 6 3 10 8 10 11 0 2 -4 4 -10 4 -5 0 -10
-5 -10 -11z"/>
<path d="M2238 2050 c-18 -16 -28 -30 -22 -30 5 0 23 14 39 30 37 39 25 39
-17 0z"/>
<path d="M3065 2067 c-4 -8 -5 -26 -3 -38 3 -21 5 -19 33 17 16 21 22 33 14
27 -12 -9 -18 -10 -27 -1 -8 8 -13 7 -17 -5z"/>
<path d="M388 1945 c-6 -30 5 -39 38 -31 29 8 31 31 5 46 -30 15 -38 12 -43
-15z"/>
<path d="M507 1903 c-4 -3 -7 -17 -7 -30 0 -20 5 -23 35 -23 39 0 39 -1 25 34
-9 25 -38 35 -53 19z"/>
<path d="M3197 1886 c-11 -28 -9 -34 23 -50 38 -19 41 0 7 40 -21 24 -24 25
-30 10z"/>
<path d="M390 1873 c0 -5 14 -16 30 -25 35 -20 39 -14 8 13 -24 19 -38 24 -38
12z"/>
<path d="M503 1811 c-12 -18 -8 -31 9 -31 4 0 8 7 8 15 0 8 5 15 10 15 6 0 10
-10 10 -22 0 -16 3 -19 11 -11 15 15 1 53 -19 53 -10 0 -23 -9 -29 -19z"/>
<path d="M3060 1796 c-8 -10 -9 -20 -2 -32 6 -10 6 -27 2 -39 -10 -26 -2 -75
12 -75 7 0 6 -5 -1 -14 -16 -19 11 -40 39 -31 20 6 20 8 6 24 -11 12 -12 21
-6 27 14 14 1 76 -14 67 -6 -3 -6 0 2 8 17 18 15 26 -7 32 -14 3 -18 11 -14
26 6 25 0 27 -17 7z"/>
<path d="M200 1761 c0 -14 14 -25 52 -39 29 -11 54 -25 56 -32 3 -7 0 -10 -6
-6 -6 3 -13 2 -17 -4 -4 -6 5 -10 20 -10 14 0 24 4 21 9 -3 5 1 14 9 21 12 10
15 9 15 -4 0 -20 26 -21 33 -2 3 9 16 13 31 12 14 -2 26 1 26 5 0 5 -1 9 -2
10 -2 0 -23 2 -48 5 -25 3 -76 16 -113 30 -82 29 -77 29 -77 5z"/>
<path d="M571 1734 c0 -11 3 -14 6 -6 3 7 2 16 -1 19 -3 4 -6 -2 -5 -13z"/>
<path d="M150 1685 c7 -9 15 -13 17 -11 7 7 -7 26 -19 26 -6 0 -6 -6 2 -15z"/>
<path d="M390 1686 c0 -7 6 -18 13 -24 10 -8 13 -6 14 8 1 10 -5 21 -13 24 -8
3 -14 -1 -14 -8z"/>
<path d="M280 1620 c0 -5 5 -10 11 -10 5 0 7 5 4 10 -3 6 -8 10 -11 10 -2 0
-4 -4 -4 -10z"/>
<path d="M380 1620 c0 -5 15 -10 34 -10 19 0 38 5 41 10 4 6 -10 10 -34 10
-23 0 -41 -4 -41 -10z"/>
<path d="M288 1592 c-38 -5 -35 -15 8 -36 39 -18 59 -11 49 17 -8 19 -22 24
-57 19z"/>
<path d="M505 1578 c-9 -22 2 -39 19 -32 8 3 17 1 21 -5 12 -21 24 -11 23 19
-1 33 -7 37 -26 18 -10 -10 -15 -10 -22 2 -8 12 -10 12 -15 -2z"/>
<path d="M620 1563 c0 -24 12 -25 68 -7 26 8 5 28 -31 30 -33 1 -37 -2 -37
-23z"/>
<path d="M390 1550 c0 -5 5 -10 10 -10 6 0 10 5 10 10 0 6 -4 10 -10 10 -5 0
-10 -4 -10 -10z"/>
<path d="M420 1540 c0 -5 5 -10 10 -10 6 0 10 5 10 10 0 6 -4 10 -10 10 -5 0
-10 -4 -10 -10z"/>
<path d="M3055 1430 c-3 -5 -2 -10 4 -10 5 0 13 5 16 10 3 6 2 10 -4 10 -5 0
-13 -4 -16 -10z"/>
<path d="M520 1330 c0 -11 7 -20 15 -20 17 0 18 2 9 24 -9 23 -24 20 -24 -4z"/>
<path d="M292 1268 c-27 -27 -6 -56 28 -38 24 13 26 35 4 44 -20 8 -18 8 -32
-6z"/>
<path d="M385 1250 c-4 -6 -3 -16 3 -22 6 -6 12 -6 17 2 4 6 3 16 -3 22 -6 6
-12 6 -17 -2z"/>
<path d="M505 1241 c-6 -11 13 -26 22 -17 4 3 1 6 -6 6 -7 0 -9 5 -6 10 3 6 4
10 1 10 -3 0 -7 -4 -11 -9z"/>
<path d="M1670 1180 c0 -5 5 -10 10 -10 6 0 10 5 10 10 0 6 -4 10 -10 10 -5 0
-10 -4 -10 -10z"/>
<path d="M1693 1166 c-29 -31 -29 -33 7 -38 33 -5 51 9 30 22 -9 5 -9 9 -1 14
6 4 11 11 11 17 0 17 -25 9 -47 -15z"/>
<path d="M300 1165 c0 -8 7 -15 15 -15 8 0 15 7 15 15 0 8 -7 15 -15 15 -8 0
-15 -7 -15 -15z"/>
<path d="M3063 1135 c0 -8 4 -15 9 -15 4 0 8 4 8 9 0 6 -4 12 -8 15 -5 3 -9
-1 -9 -9z"/>
<path d="M255 1113 c-14 -14 -18 -14 -26 -2 -13 20 -11 4 3 -26 l12 -26 12 22
12 22 6 -21 c11 -33 42 -27 55 9 6 18 11 34 11 35 0 12 -71 1 -85 -13z m55
-17 c0 -3 -4 -8 -10 -11 -5 -3 -10 -1 -10 4 0 6 5 11 10 11 6 0 10 -2 10 -4z"/>
<path d="M1692 1083 c4 -21 33 -25 33 -3 0 8 -8 16 -18 18 -14 3 -18 -1 -15
-15z"/>
<path d="M1670 1010 c0 -15 4 -20 15 -17 8 4 17 2 20 -3 10 -17 25 -11 25 10
0 11 -6 20 -14 20 -8 0 -21 3 -30 6 -12 4 -16 0 -16 -16z"/>
<path d="M2736 951 c-17 -19 -22 -51 -7 -51 5 0 11 -9 14 -19 3 -14 1 -18 -9
-14 -18 6 -19 -28 -2 -45 32 -32 79 2 60 43 -7 15 -8 26 -2 30 18 11 10 43
-14 58 -22 15 -25 15 -40 -2z"/>
<path d="M1673 918 c0 -30 17 -40 17 -10 1 16 1 16 14 0 18 -24 30 -23 23 2
-3 11 -1 20 4 20 5 0 9 4 9 8 0 4 -15 8 -33 8 -30 0 -34 -3 -34 -28z"/>
<path d="M1928 920 c37 -33 52 -38 52 -15 0 8 -16 22 -36 30 -51 21 -53 19
-16 -15z"/>
<path d="M1717 863 c-4 -3 -7 -12 -7 -20 0 -15 26 -18 34 -4 7 11 -18 33 -27
24z"/>
<path d="M1709 783 c-1 -4 -1 -11 0 -15 0 -5 -3 -8 -9 -8 -5 0 -10 5 -10 10 0
6 -4 10 -10 10 -15 0 -12 -26 4 -39 10 -9 16 -8 25 3 7 8 19 12 28 9 11 -4 14
-1 11 13 -3 19 -37 33 -39 17z"/>
<path d="M2010 771 c0 -14 38 -24 66 -17 40 10 27 26 -21 26 -25 0 -45 -4 -45
-9z"/>
<path d="M2847 723 c-11 -10 -8 -53 3 -53 6 0 10 14 10 30 0 31 -2 35 -13 23z"/>
<path d="M2037 712 c-30 -6 -18 -46 16 -50 15 -2 27 1 27 7 0 6 7 11 15 11 8
0 15 8 15 17 0 9 -3 14 -6 10 -3 -3 -16 -2 -28 2 -11 4 -29 6 -39 3z"/>
<path d="M1670 687 c0 -20 5 -23 35 -23 36 1 49 14 35 36 -7 11 -11 11 -26 -1
-13 -11 -18 -11 -21 -1 -8 21 -23 13 -23 -11z"/>
<path d="M1534 649 c1 -19 -2 -39 -7 -46 -4 -6 -3 -14 3 -18 5 -3 10 -3 10 2
0 4 5 1 10 -7 7 -11 10 -7 10 17 0 17 -5 35 -10 38 -6 4 -8 10 -6 14 3 4 1 13
-4 21 -5 9 -8 2 -6 -21z"/>
<path d="M2070 641 c0 -7 -9 -9 -25 -5 -26 6 -36 -9 -12 -20 10 -5 10 -7 0
-12 -24 -11 -13 -22 21 -21 30 1 33 4 32 28 -1 27 -16 54 -16 30z"/>
<path d="M1650 622 c0 -17 25 -32 52 -32 21 0 28 5 28 20 0 11 -4 20 -10 20
-5 0 -10 -4 -10 -10 0 -5 -9 -10 -20 -10 -11 0 -20 5 -20 10 0 6 -4 10 -10 10
-5 0 -10 -4 -10 -8z"/>
<path d="M1866 554 c-4 -14 -5 -28 -3 -31 3 -2 8 8 11 23 4 14 5 28 3 31 -3 2
-8 -8 -11 -23z"/>
<path d="M2790 570 c-9 -6 -10 -10 -3 -10 6 0 15 5 18 10 8 12 4 12 -15 0z"/>
<path d="M1678 563 c-3 -4 -5 -20 -6 -34 -2 -31 30 -46 48 -24 18 22 8 60 -17
63 -11 2 -23 0 -25 -5z"/>
<path d="M2041 537 c-15 -42 -14 -47 12 -43 14 2 21 9 19 20 -2 10 2 23 8 31
8 9 6 14 -9 18 -15 4 -22 -2 -30 -26z"/>
<path d="M2057 464 c-4 -4 -7 -14 -7 -23 0 -11 3 -12 11 -4 6 6 10 16 7 23 -2
6 -7 8 -11 4z"/>
<path d="M1705 440 c-3 -5 -1 -10 4 -10 6 0 11 5 11 10 0 6 -2 10 -4 10 -3 0
-8 -4 -11 -10z"/>
<path d="M1690 390 c-8 -5 -12 -11 -9 -14 2 -3 11 -1 19 4 8 5 12 11 9 14 -2
3 -11 1 -19 -4z"/>
<path d="M2201 375 c-7 -25 -5 -123 2 -116 4 4 6 35 4 67 -2 32 -4 55 -6 49z"/>
<path d="M2395 280 c-3 -5 1 -10 10 -10 9 0 13 5 10 10 -3 6 -8 10 -10 10 -2
0 -7 -4 -10 -10z"/>
</g>
</svg>
